<svg viewBox="0 0 79.01432000000001 88.8976217765043" xmlns="http://www.w3.org/2000/svg" style="max-height: 500px" width="79.01432000000001" height="88.8976217765043"><defs><style>.cls-1{fill:#0a94d5;}.cls-2{fill:#49c4ea;}.cls-3{fill:#fff;}</style></defs><g data-name="Layer 2" id="Layer_2"><g data-name="Layer 1" id="Layer_1-2"><path d="M160.79,34.28a9.63,9.63,0,1,0,9.62,9.63A9.63,9.63,0,0,0,160.79,34.28Zm0,15.77a6.15,6.15,0,1,1,6.14-6.14A6.16,6.16,0,0,1,160.79,50.05Z" class="cls-1"/><path d="M194,43.4a10,10,0,0,0-19.9.4.22.22,0,0,0,0,.11V51.8a1.75,1.75,0,0,0,3.49,0V44.25a6.49,6.49,0,0,1,13,0V51.8a1.74,1.74,0,0,0,3.48,0v-8a2,2,0,0,0,0-.34Z" class="cls-1"/><path d="M207.27,34.37A9.63,9.63,0,1,0,216.89,44,9.64,9.64,0,0,0,207.27,34.37Zm0,15.76A6.14,6.14,0,1,1,213.41,44,6.14,6.14,0,0,1,207.27,50.13Z" class="cls-1"/><path d="M246.91,34.28a9.63,9.63,0,1,0,9.63,9.63A9.63,9.63,0,0,0,246.91,34.28Zm0,15.77a6.15,6.15,0,1,1,6.15-6.14A6.15,6.15,0,0,1,246.91,50.05Z" class="cls-1"/><path d="M108.68,33.52a10,10,0,0,0-10,9.87.77.77,0,0,0,0,.15,1,1,0,0,0,0,.16,10,10,0,0,0,10,9.84h7.64a1.75,1.75,0,1,0,0-3.49h-7.64a6.53,6.53,0,0,1-6.28-4.77h14.54a1.74,1.74,0,0,0,1.74-1.74h0A10,10,0,0,0,108.68,33.52Zm0,3.49A6.52,6.52,0,0,1,115,41.79H102.4A6.52,6.52,0,0,1,108.68,37Z" class="cls-1"/><path d="M144.4,35.64c-3-1.91-7.84-1.42-10.44.23,0,0,0,0-.07.05-3.06-2.24-7.42-1.63-9.58-1.34l-.42.06a1.74,1.74,0,0,0-1.5,2s0,0,0,.08a1.84,1.84,0,0,0,0,.33V51.79a1.75,1.75,0,1,0,3.49,0V37.9c1.92-.22,4.72-.34,6.26,1.07.78.71.82,1,.79,3.38,0,.71,0,8.51,0,9.49a1.75,1.75,0,0,0,1.74,1.7h.06a1.73,1.73,0,0,0,1.69-1.79c0-.93,0-8.68,0-9.35A10.75,10.75,0,0,0,136,38.7c1.8-1,5-1.07,6.5-.12s1.62,4.19,1.62,5.89v7.32a1.75,1.75,0,1,0,3.49,0V44.47C147.65,42.1,147.65,37.69,144.4,35.64Z" class="cls-1"/><path d="M235.23,34.53a1.74,1.74,0,0,0-2.31.85l-5.71,12.38-5.94-12.54a1.74,1.74,0,0,0-3.15,1.49l7.53,15.91,0,.05a2.05,2.05,0,0,0,.24.36h0a1.54,1.54,0,0,0,.34.28l.1.06.13.08.17,0,.12,0a1.61,1.61,0,0,0,.43.07h0a1.61,1.61,0,0,0,.43-.07l.13,0,.18-.06.12-.07.11-.07a1.75,1.75,0,0,0,.33-.28h0a2.35,2.35,0,0,0,.24-.37l0,0,7.27-15.76A1.75,1.75,0,0,0,235.23,34.53Z" class="cls-1"/><path d="M78.94,39.47A39.35,39.35,0,0,1,61.46,72.23l-.37.25h0l-.37.25-.74.46-.37.23-.38.21a39.49,39.49,0,0,1-37.7,1l-.4-.2-.41-.23-.25-.13-.54-.31a3.84,3.84,0,0,1-.39-.22c-.12-.08-.25-.15-.38-.22A39.47,39.47,0,1,1,78.94,39.47Z" class="cls-2"/><path d="M54.82,60.52l-1.34,1.66s0,.07,0,.11a18.17,18.17,0,0,0-3.75,2L26.86,79.59a39.08,39.08,0,0,0-1.67-8.47.8.8,0,0,0-.15-.51c-.36-1.19-.7-2.19-.93-2.87,2.28-.1,4.76-.31,7.6-.64a47.46,47.46,0,0,0,9.79-1.86c3.16-1.06,7.49-3.54,9.83-7.16a6.86,6.86,0,0,0,2.47,2.05A7,7,0,0,0,54.82,60.52Z" class="cls-3"/><path d="M64.48,82.3a.39.39,0,0,1-.32.12h-.11c-1.1-.1-2.2-.14-3.3-.14s-2.45,0-3.65.09-2.39.08-3.6.08H50.93a34.16,34.16,0,0,0-7.41.69,26.7,26.7,0,0,0-3.18,1,25.65,25.65,0,0,1-2.87.91A46,46,0,0,1,32,85.8l-.88.1c-.51,0-1,.12-1.54.2a22.83,22.83,0,0,1-3.12.3,6.64,6.64,0,0,1-3.32-.79,16.92,16.92,0,0,1-4-3.35l-.58-4.71,5.43-5c.79,2.83,1.53,6.22,1.31,8.46a.77.77,0,0,0,.37.74.83.83,0,0,0,.4.11.73.73,0,0,0,.43-.13l23.81-16,.23-.14c1.58-1,3.37-2.14,5.08-2.14H58a.85.85,0,0,1,.81.59c1,3,3.39,10.45,5.06,14.67C65,81.45,64.57,82.17,64.48,82.3Z" class="cls-3"/><path d="M19.34,39.17h0a7.39,7.39,0,0,1-.87-.11h-.12V38.9h.1a2.46,2.46,0,0,0,0-.26h0a2.74,2.74,0,0,1,.8-.9,1.34,1.34,0,0,0-.12.3A1.12,1.12,0,0,0,19.34,39.17Z" class="cls-3"/><path d="M22,38l-.69,1.05-.29.06h0l-.55.05h-.19a1.23,1.23,0,0,0,.46-.69,1.17,1.17,0,0,0-.2-1.05h0a3,3,0,0,1,1.18.42A1.83,1.83,0,0,1,22,38Z" class="cls-3"/><path d="M22.79,36.88l-.38.58,0,0-.25-.15a3.59,3.59,0,0,0-2.46-.47,2.6,2.6,0,0,0-1.46.93l0,0-.06.08v0l.08-.1-.28-1.36A4,4,0,0,1,18,34.47l.78,0a7.44,7.44,0,0,0,1.05-.09A3.17,3.17,0,0,0,21.05,34l.08,0,.15-.11,1.51,2.37A.59.59,0,0,1,22.79,36.88Z" class="cls-3"/><path d="M31.19,37.19a1.29,1.29,0,0,0-.17.65,1.14,1.14,0,0,0,.07.41,5.22,5.22,0,0,0-.67,0,5.7,5.7,0,0,0-.76,0A3.3,3.3,0,0,1,31.19,37.19Z" class="cls-3"/><path d="M33.25,38.77a1.33,1.33,0,0,0,.38-.93,1.36,1.36,0,0,0-.13-.57,20.19,20.19,0,0,1,2.33,1.63A8.28,8.28,0,0,1,33.25,38.77Z" class="cls-3"/><path d="M50.33,48A17.64,17.64,0,0,0,51,44.14c-.29-5.24-2.78-9.91-4.92-13.4A16.15,16.15,0,0,1,43.84,20l-.1,0c-2.29.39-7.56,1.26-10.68,1.5-7.89.72-10.86,4.7-11.93,7-.07.14-.14.26-.2.39a.52.52,0,0,1-.12.26A35.4,35.4,0,0,1,19,32.58c1-.28,3.6-1,3.53-.19v0s0,0,0,0h0a.87.87,0,0,1-.27.47l1.93,3a1.14,1.14,0,0,1,0,1.22l-3.94,6a2.2,2.2,0,0,0-.34,1.5l.24,1.63A1.83,1.83,0,0,0,21,47.59l.78.47a.66.66,0,1,1-.68,1.12l-.77-.47a3.09,3.09,0,0,1-1.49-2.24l-.24-1.64a3.45,3.45,0,0,1,.54-2.4l1.72-2.61-.25,0a9.08,9.08,0,0,1-1.47,0l-.7-.09h-.05a12.17,12.17,0,0,1-1.24,4.9,5.26,5.26,0,0,0-.6,3.39l2.15,11.45,0,.11a8.91,8.91,0,0,1,.63-.8.75.75,0,0,1,.54-.27h0a.77.77,0,0,1,.6,1.28c-1.08,1.25-2.89,4.47-1.23,6a2.45,2.45,0,0,0,1.52.51H21c1.14,0,2.32,0,3.56-.11,1,0,2.14-.13,3.28-.23l.87-.08,1.31-.14,1.46-.16A45.09,45.09,0,0,0,41,63.77c3.36-1.13,7.57-3.8,9.41-7.22l0,0a12.18,12.18,0,0,1-.81-4.4A17.65,17.65,0,0,1,50.33,48ZM31.58,39.16a4.38,4.38,0,0,0-2.43,0,.42.42,0,0,1-.37-.07.4.4,0,0,1-.13-.36c.28-1.78,2.83-2.7,4.08-2.58,1.08.09,3.53,2.09,4,2.49a.39.39,0,0,1,.1.48c-.25.46-1,.61-1.76.61A14.07,14.07,0,0,1,31.58,39.16Z" class="cls-3"/><path d="M54.82,60.52l-1.34,1.66s0,.07,0,.11a18.17,18.17,0,0,0-3.75,2L26.86,79.59a39.08,39.08,0,0,0-1.67-8.47.8.8,0,0,0-.15-.51c-.36-1.19-.7-2.19-.93-2.87,2.28-.1,4.76-.31,7.6-.64a47.46,47.46,0,0,0,9.79-1.86c3.16-1.06,7.49-3.54,9.83-7.16a6.86,6.86,0,0,0,2.47,2.05A7,7,0,0,0,54.82,60.52Z" class="cls-3"/><path d="M64.48,82.3a.39.39,0,0,1-.32.12h-.11c-1.1-.1-2.2-.14-3.3-.14s-2.45,0-3.65.09-2.39.08-3.6.08H50.93a34.16,34.16,0,0,0-7.41.69,26.7,26.7,0,0,0-3.18,1,25.65,25.65,0,0,1-2.87.91A46,46,0,0,1,32,85.8l-.88.1c-.51,0-1,.12-1.54.2a22.83,22.83,0,0,1-3.12.3,6.64,6.64,0,0,1-3.32-.79,16.92,16.92,0,0,1-4-3.35l-.58-4.71,5.43-5c.79,2.83,1.53,6.22,1.31,8.46a.77.77,0,0,0,.37.74.83.83,0,0,0,.4.11.73.73,0,0,0,.43-.13l23.81-16,.23-.14c1.58-1,3.37-2.14,5.08-2.14H58a.85.85,0,0,1,.81.59c1,3,3.39,10.45,5.06,14.67C65,81.45,64.57,82.17,64.48,82.3Z" class="cls-3"/><path d="M19.34,39.17h0a7.39,7.39,0,0,1-.87-.11h-.12V38.9h.1a2.46,2.46,0,0,0,0-.26h0a2.74,2.74,0,0,1,.8-.9,1.34,1.34,0,0,0-.12.3A1.12,1.12,0,0,0,19.34,39.17Z" class="cls-3"/><path d="M22,38l-.69,1.05-.29.06h0l-.55.05h-.19a1.23,1.23,0,0,0,.46-.69,1.17,1.17,0,0,0-.2-1.05h0a3,3,0,0,1,1.18.42A1.83,1.83,0,0,1,22,38Z" class="cls-3"/><path d="M22.79,36.88l-.38.58,0,0-.25-.15a3.59,3.59,0,0,0-2.46-.47,2.6,2.6,0,0,0-1.46.93l0,0-.06.08v0l.08-.1-.28-1.36A4,4,0,0,1,18,34.47l.78,0a7.44,7.44,0,0,0,1.05-.09A3.17,3.17,0,0,0,21.05,34l.08,0,.15-.11,1.51,2.37A.59.59,0,0,1,22.79,36.88Z" class="cls-3"/><path d="M31.19,37.19a1.29,1.29,0,0,0-.17.65,1.14,1.14,0,0,0,.07.41,5.22,5.22,0,0,0-.67,0,5.7,5.7,0,0,0-.76,0A3.3,3.3,0,0,1,31.19,37.19Z" class="cls-3"/><path d="M33.25,38.77a1.33,1.33,0,0,0,.38-.93,1.36,1.36,0,0,0-.13-.57,20.19,20.19,0,0,1,2.33,1.63A8.28,8.28,0,0,1,33.25,38.77Z" class="cls-3"/><path d="M50.33,48A17.64,17.64,0,0,0,51,44.14c-.29-5.24-2.78-9.91-4.92-13.4A16.15,16.15,0,0,1,43.84,20l-.1,0c-2.29.39-7.56,1.26-10.68,1.5-7.89.72-10.86,4.7-11.93,7-.07.14-.14.26-.2.39a.69.69,0,0,1-.14.22c-.62,1.29-1.25,2.32-1.81,3.42,1-.28,3.6-1,3.53-.19v0s0,0,0,0h0a.87.87,0,0,1-.27.47l1.93,3a1.14,1.14,0,0,1,0,1.22l-3.94,6a2.2,2.2,0,0,0-.34,1.5l.24,1.63A1.83,1.83,0,0,0,21,47.59l.78.47a.66.66,0,1,1-.68,1.12l-.77-.47a3.09,3.09,0,0,1-1.49-2.24l-.24-1.64a3.45,3.45,0,0,1,.54-2.4l1.72-2.61-.25,0a9.08,9.08,0,0,1-1.47,0l-.7-.09h-.05a12.17,12.17,0,0,1-1.24,4.9,5.26,5.26,0,0,0-.6,3.39l2.15,11.45,0,.11a8.91,8.91,0,0,1,.63-.8.75.75,0,0,1,.54-.27h0a.77.77,0,0,1,.6,1.28c-1.08,1.25-2.89,4.47-1.23,6a2.45,2.45,0,0,0,1.52.51H21c1.14,0,2.32,0,3.56-.11,1,0,2.14-.13,3.28-.23l.87-.08,1.31-.14,1.46-.16A45.09,45.09,0,0,0,41,63.77c3.36-1.13,7.57-3.8,9.41-7.22l0,0a12.18,12.18,0,0,1-.81-4.4A17.65,17.65,0,0,1,50.33,48ZM31.58,39.16a4.38,4.38,0,0,0-2.43,0,.42.42,0,0,1-.37-.07.4.4,0,0,1-.13-.36c.28-1.78,2.83-2.7,4.08-2.58,1.08.09,3.53,2.09,4,2.49a.39.39,0,0,1,.1.48c-.25.46-1,.61-1.76.61A14.07,14.07,0,0,1,31.58,39.16Z" class="cls-3"/><path d="M25,70.61c-.36-1.19-.7-2.19-.93-2.87,2.28-.1,4.76-.31,7.6-.64a47.46,47.46,0,0,0,9.79-1.86c3.16-1.06,7.49-3.54,9.83-7.16a6.86,6.86,0,0,0,2.47,2.05,7,7,0,0,0,1,.39l-1.08,1.65s-.29.08-.31.12a18.17,18.17,0,0,0-3.75,2L26.86,79.59a39.08,39.08,0,0,0-1.67-8.47" class="cls-3"/><path d="M64.48,82.3a.39.39,0,0,1-.32.12h-.11c-1.1-.1-2.2-.14-3.3-.14s-2.45,0-3.65.09-2.39.08-3.6.08H50.93a34.16,34.16,0,0,0-7.41.69,26.7,26.7,0,0,0-3.18,1,25.65,25.65,0,0,1-2.87.91A46,46,0,0,1,32,85.8l-.88.1c-.51,0-1,.12-1.54.2a22.83,22.83,0,0,1-3.12.3,6.64,6.64,0,0,1-3.32-.79,16.92,16.92,0,0,1-4-3.35l-.58-4.71,5.43-5c.79,2.83,1.53,6.22,1.31,8.46a.77.77,0,0,0,.37.74.83.83,0,0,0,.4.11.73.73,0,0,0,.43-.13l23.81-16,.23-.14c1.58-1,3.37-2.14,5.08-2.14H58a.85.85,0,0,1,.81.59c1,3,3.39,10.45,5.06,14.67C65,81.45,64.57,82.17,64.48,82.3Z" class="cls-3"/><path d="M66.71,77.61c-1.64-4.15-4-11.53-5-14.5a3.9,3.9,0,0,0-2.05-2.32,7.66,7.66,0,0,0,2.2-4.64c.35-2.6.63-5,.86-7.36.48-4.78.83-10.06,1.06-16.12.11-2.85,0-10-3.67-14.94a18,18,0,0,0-6.6-5.32,23.55,23.55,0,0,0-8.36-1.86c-.51,0-1-.09-1.51-.15a42.65,42.65,0,0,1-6-1.15,10.21,10.21,0,0,0-2.59-.32c-3.78,0-7.12,2-9.3,3.43-8.52,5.74-8.25,13.55-7.92,16a24.33,24.33,0,0,1-1.74,3.05l-.09.14A7.2,7.2,0,0,0,15,37L15.4,39a10,10,0,0,1-.93,4.2,8.22,8.22,0,0,0-.89,5.35L16,61.66c-.85,2.57-.41,4.85,1.24,6.33a5.56,5.56,0,0,0,3.83,1.29h.34c.1.33.24.72.37,1.14l-5.61,5.19a2.23,2.23,0,0,0-.7,1.91l.66,5.35a2.22,2.22,0,0,0,.56,1.22,19.85,19.85,0,0,0,4.94,4.13,9.4,9.4,0,0,0,4.78,1.19A25,25,0,0,0,30,89.08c.5-.07,1-.14,1.47-.19l.87-.09a48.58,48.58,0,0,0,5.82-.89,31.38,31.38,0,0,0,3.19-1A23.46,23.46,0,0,1,44.17,86a30.82,30.82,0,0,1,6.74-.62l1.62,0h1c1.24,0,2.47,0,3.67-.08s2.45-.09,3.63-.09,2,0,2.84.11a2.71,2.71,0,0,0,.51,0,3.37,3.37,0,0,0,2.63-1.21C68.33,82.37,67.48,79.56,66.71,77.61Zm-1,5.68a2,2,0,0,1-1.52.69,1.69,1.69,0,0,1-.33,0,30,30,0,0,0-3-.13c-1.2,0-2.43,0-3.62.1h0c-1.2,0-2.42.08-3.65.08h-.95l-1.65,0a33.05,33.05,0,0,0-7,.65,25.25,25.25,0,0,0-3,.94,30.81,30.81,0,0,1-3,.94,46.05,46.05,0,0,1-5.66.85l-.87.1c-.5,0-1,.12-1.49.19a23.44,23.44,0,0,1-3.35.31,8,8,0,0,1-4.07-1,18.4,18.4,0,0,1-4.57-3.84.72.72,0,0,1-.2-.43l-.67-5.34a.83.83,0,0,1,.25-.68l6.29-5.8c-.42-1.4-.81-2.51-1-3.06l-1.33,0h0a4.13,4.13,0,0,1-2.86-.92c-1.5-1.35-1.4-3.35-.69-5.15a.79.79,0,0,0,0-.09L15,48.32a6.75,6.75,0,0,1,.75-4.41A11.42,11.42,0,0,0,16.85,39a1.09,1.09,0,0,0,0-.17l-.45-2.15a5.72,5.72,0,0,1,.85-4.28l.1-.14a31.66,31.66,0,0,0,2-3.63c-.32-1.74-1.18-9.4,7.22-15,2.13-1.44,5.16-3.18,8.49-3.18a9.57,9.57,0,0,1,2.23.27,43,43,0,0,0,6.17,1.2L45,12a22.14,22.14,0,0,1,7.87,1.72,16.43,16.43,0,0,1,6.06,4.88c3.38,4.53,3.5,11.31,3.39,14-.23,6-.57,11.26-1,16-.23,2.34-.51,4.73-.86,7.29a5.58,5.58,0,0,1-2.55,4.36,3.76,3.76,0,0,1-1.16.39l-1,1.2H58a2.37,2.37,0,0,1,2.28,1.67c1,3,3.39,10.4,5,14.58C66.35,80.67,66.46,82.35,65.68,83.29Z" class="cls-3"/><path d="M65.36,78.14c-1.66-4.18-4.08-11.59-5-14.58A2.37,2.37,0,0,0,58,61.89h-2.3l1-1.2a3.76,3.76,0,0,0,1.16-.39,5.58,5.58,0,0,0,2.55-4.36c.35-2.56.63-4.95.86-7.29.48-4.77.82-10,1-16,.11-2.71,0-9.49-3.39-14a16.43,16.43,0,0,0-6.06-4.88A22.14,22.14,0,0,0,45,12l-1.52-.15a43,43,0,0,1-6.17-1.2,9.57,9.57,0,0,0-2.23-.27c-3.33,0-6.36,1.74-8.49,3.18-8.4,5.65-7.54,13.31-7.22,15.05a31.66,31.66,0,0,1-2,3.63l-.1.14a5.72,5.72,0,0,0-.85,4.28l.45,2.15a1.09,1.09,0,0,1,0,.17,11.42,11.42,0,0,1-1.09,4.93A6.75,6.75,0,0,0,15,48.32l2.51,13.35a.79.79,0,0,1,0,.09c-.71,1.8-.81,3.8.69,5.15a4.13,4.13,0,0,0,2.86.92h0l1.33,0c.19.55.58,1.66,1,3.06l-6.29,5.8a.83.83,0,0,0-.25.68l.67,5.34a.72.72,0,0,0,.2.43A18.4,18.4,0,0,0,22.38,87a8,8,0,0,0,4.07,1,23.44,23.44,0,0,0,3.35-.31c.49-.07,1-.14,1.49-.19l.87-.1a46.05,46.05,0,0,0,5.66-.85,30.81,30.81,0,0,0,3-.94,25.25,25.25,0,0,1,3-.94,33.05,33.05,0,0,1,7-.65l1.65,0h.95c1.23,0,2.45,0,3.65-.08h0c1.19-.06,2.42-.1,3.62-.1a30,30,0,0,1,3,.13,1.69,1.69,0,0,0,.33,0,2,2,0,0,0,1.52-.69C66.46,82.35,66.35,80.67,65.36,78.14Zm-11.56-18a7,7,0,0,0,1,.39,2,2,0,0,0-.2.26l-.23.29c-.15.18-.3.35-.44.53a4.65,4.65,0,0,1-.49.59,2.68,2.68,0,0,1-.75.39c-.25.1-.49.22-.73.34-.48.25-.94.52-1.4.8l-.9.56L26.86,79.59a34.54,34.54,0,0,0-1.48-7.81c-.14-.53-.27-1.06-.44-1.59s-.36-1.09-.55-1.63c-.09-.27-.18-.54-.28-.82,2.28-.1,4.76-.31,7.6-.64a47.46,47.46,0,0,0,9.79-1.86c3.16-1.06,7.49-3.54,9.83-7.16A6.86,6.86,0,0,0,53.8,60.13ZM18,34.47l.78,0a7.44,7.44,0,0,0,1.05-.09A3.17,3.17,0,0,0,21.05,34l.08,0,.15-.11,1.51,2.37a.59.59,0,0,1,0,.65l-.38.58,0,0-.25-.15a3.59,3.59,0,0,0-2.46-.47,2.6,2.6,0,0,0-1.46.93v0l-.28-1.36A4,4,0,0,1,18,34.47Zm2.58,3h0a3,3,0,0,1,1.18.42A1.83,1.83,0,0,1,22,38L22,38l-.69,1.05-.29.06h0l-.55.05h-.19a1.23,1.23,0,0,0,.46-.69A1.17,1.17,0,0,0,20.57,37.44Zm-2.18,1.21h0a2.74,2.74,0,0,1,.8-.9,1.34,1.34,0,0,0-.12.3,1.12,1.12,0,0,0,.27,1.13h0a7.39,7.39,0,0,1-.87-.11h0v-.15A2.46,2.46,0,0,0,18.39,38.65ZM21,66.27h-.23a2.45,2.45,0,0,1-1.52-.51c-1.66-1.48.15-4.7,1.23-6a.77.77,0,0,0-.6-1.28h0a.75.75,0,0,0-.54.27,8.91,8.91,0,0,0-.63.8l0-.11L16.54,48a5.26,5.26,0,0,1,.6-3.39,12.17,12.17,0,0,0,1.24-4.9h.05l.7.09a9.08,9.08,0,0,0,1.47,0l.25,0-1.72,2.61a3.45,3.45,0,0,0-.54,2.4l.24,1.64a3.09,3.09,0,0,0,1.49,2.24l.77.47a.66.66,0,1,0,.68-1.12L21,47.59a1.83,1.83,0,0,1-.87-1.31l-.24-1.63a2.2,2.2,0,0,1,.34-1.5l3.94-6a1.14,1.14,0,0,0,0-1.22l-1.93-3a.86.86,0,0,0,.27-.48s0,0,0,0v0c.07-.79-2.54-.09-3.53.19,0,0,.12-.18.14-.22s.09-.15.14-.23.19-.32.28-.48c.2-.34.38-.69.57-1s.28-.55.41-.82c.21-.42.41-.83.61-1.25,1.07-2.31,4-6.29,11.93-7,3.12-.24,8.39-1.11,10.68-1.5l.1,0a16.15,16.15,0,0,0,2.22,10.72c2.14,3.49,4.63,8.16,4.92,13.4A17.64,17.64,0,0,1,50.33,48a17.65,17.65,0,0,0-.69,4.09,12.18,12.18,0,0,0,.81,4.4l0,0C48.58,60,44.37,62.64,41,63.77a45.09,45.09,0,0,1-9.49,1.78l-1.46.16-1.31.14-.87.08c-1.14.1-2.24.18-3.28.23C23.36,66.23,22.18,66.26,21,66.27Zm43.44,16a.39.39,0,0,1-.32.12h-.11c-1.1-.1-2.2-.14-3.3-.14s-2.45,0-3.65.09-2.39.08-3.6.08H50.93a34.16,34.16,0,0,0-7.41.69,26.7,26.7,0,0,0-3.18,1,25.65,25.65,0,0,1-2.87.91A46,46,0,0,1,32,85.8l-.88.1c-.51,0-1,.12-1.54.2a22.83,22.83,0,0,1-3.12.3,6.64,6.64,0,0,1-3.32-.79,16.92,16.92,0,0,1-4-3.35l-.58-4.71,5.43-5c.79,2.83,1.53,6.22,1.31,8.46a.77.77,0,0,0,.37.74.83.83,0,0,0,.4.11.73.73,0,0,0,.43-.13l23.81-16,.23-.14c1.58-1,3.37-2.14,5.08-2.14H58a.85.85,0,0,1,.81.59c1,3,3.39,10.45,5.06,14.67C65,81.45,64.57,82.17,64.48,82.3Z" class="cls-1"/><path d="M22,56.71c-.34,0-.67,0-1-.05s-.63-.06-.95-.06H20a3.25,3.25,0,0,1-.77-.06.4.4,0,0,1-.29-.47.39.39,0,0,1,.47-.29,2.83,2.83,0,0,0,.59,0c.44,0,.74,0,1.08.06a6,6,0,0,0,1.59,0l.37-.07a20.21,20.21,0,0,0,3.39-1.07h0c-2.21-.06-4.23-.09-4.54,0a1.51,1.51,0,0,1-1,.06,1.94,1.94,0,0,0-1.79,0,.57.57,0,0,1-.58,0,.59.59,0,0,1-.34-.48,2.13,2.13,0,0,1,.49-1.71,3.26,3.26,0,0,1,2.56-.79c.11,0,2.58.13,3.66.34a.39.39,0,1,1-.15.77c-1-.2-3.52-.33-3.54-.33a2.46,2.46,0,0,0-1.95.54A1.17,1.17,0,0,0,19,54a2.93,2.93,0,0,1,2.25.06,3,3,0,0,0,.5-.09c.68-.18,5.64,0,6.62.05a.39.39,0,0,1,.37.33.37.37,0,0,1-.25.42l-1.83.73a19.13,19.13,0,0,1-3.06,1l-.76.17A4.48,4.48,0,0,1,22,56.71Z" class="cls-1"/><ellipse transform="translate(-28.33 38.26) rotate(-53.57)" ry="1.73" rx="0.77" cy="47.19" cx="23.73" class="cls-1"/><path d="M27.32,34.56a5.62,5.62,0,0,1,2.94-.68c2.49,0,7.89.68,7.89.68s1.31.4.56-.71-4.41-2.91-9.3-2.58S27.13,34.43,27.32,34.56Z" class="cls-1"/><path d="M36.74,38.64c-.48-.4-2.93-2.4-4-2.49-1.25-.12-3.8.8-4.08,2.58a.4.4,0,0,0,.13.36.42.42,0,0,0,.37.07,4.38,4.38,0,0,1,2.43,0,14.07,14.07,0,0,0,3.5.57c.81,0,1.51-.15,1.76-.61A.39.39,0,0,0,36.74,38.64Zm-6.32-.43a5.7,5.7,0,0,0-.76,0,3.3,3.3,0,0,1,1.53-1.07,1.29,1.29,0,0,0-.17.65,1.14,1.14,0,0,0,.07.41A5.22,5.22,0,0,0,30.42,38.21Zm2.83.56a1.33,1.33,0,0,0,.38-.93,1.36,1.36,0,0,0-.13-.57,20.19,20.19,0,0,1,2.33,1.63A8.28,8.28,0,0,1,33.25,38.77Z" class="cls-1"/><path d="M99.38,62.92v3.84h4.13v.59H99.38v4.76h-.66v-9.8h5.07v.61Z"/><path d="M105.36,68.3c0-3,.93-4,3.25-4s3.28,1,3.28,4-1,4-3.28,4S105.36,71.28,105.36,68.3Zm5.86,0c0-2.52-.6-3.38-2.61-3.38S106,65.78,106,68.3s.58,3.38,2.59,3.38S111.22,70.81,111.22,68.3Z"/><path d="M117.34,64.34l0,.58h-.17a2.28,2.28,0,0,0-2.41,1.77v5.42h-.64V64.48h.64v1.37a2.34,2.34,0,0,1,2.46-1.51Z"/><path d="M128.83,66.77v5.34h-.64V67.17c0-1.6-.31-2.25-1.73-2.25a2,2,0,0,0-2.29,1.84h0v5.34h-.64V67.17c0-1.6-.31-2.25-1.72-2.25a2,2,0,0,0-2.29,1.77v5.42h-.64V64.48h.64v1.28a2.18,2.18,0,0,1,2.36-1.42c1.35,0,2,.55,2.2,1.49.26-1.11,1.37-1.49,2.46-1.49C128.31,64.34,128.83,65.26,128.83,66.77Z"/><path d="M136.94,68.19l-5.38.38c0,2.24.68,3.11,2.74,3.11a6.1,6.1,0,0,0,2.39-.47v.61a6.89,6.89,0,0,1-2.43.44c-2.39,0-3.35-1-3.35-4s.93-4,3.28-4c2.53,0,2.78,1.68,2.78,3.11A6.89,6.89,0,0,1,136.94,68.19Zm-.58-.53c0-1.66-.22-2.74-2.2-2.74s-2.57.88-2.6,3.11Z"/><path d="M142.45,64.34l0,.58h-.17a2.28,2.28,0,0,0-2.41,1.77v5.42h-.64V64.48h.64v1.37a2.34,2.34,0,0,1,2.46-1.51Z"/><path d="M144,70.83V61.38h.63v9.28c0,.79.21,1,.75,1a2.2,2.2,0,0,0,.68-.09v.55a2.54,2.54,0,0,1-.76.09C144.6,72.2,144,71.94,144,70.83Z"/><path d="M146.8,74.38c1.26,0,1.8-.54,2.41-2.31l-3.05-7.59h.67l2.67,6.8h.09l2.46-6.8h.66l-2.84,7.68c-.63,1.71-1.2,2.78-3.07,2.78Z"/><path d="M157.54,62.31h3l1.92,5.79h.09l2-5.79h2.91v9.8h-1.82v-8h-.08l-2.11,6h-1.89l-2.09-6h-.09v8h-1.81Z"/><path d="M175.62,69.51h-4.1l-.93,2.6h-1.91l3.67-9.8h2.49l3.65,9.8h-2ZM175.07,68l-1.4-4h-.17l-1.43,4Z"/><path d="M185.28,72.11l-2.44-3.7h-1.27v3.7h-1.85v-9.8h3.05c2.65,0,3.77.8,3.77,3,0,1.64-.61,2.5-1.89,2.85l2.81,3.91ZM182.51,67c1.57,0,2.18-.27,2.18-1.65s-.61-1.54-2.18-1.54h-.94V67Z"/><path d="M186.39,74.66v-1.5a5.75,5.75,0,0,0,.93.08c1.07,0,1.42-.69,1.42-1.78V62.31h1.84v9.27a2.82,2.82,0,0,1-3.12,3.16A7.48,7.48,0,0,1,186.39,74.66Z"/><path d="M192.66,72.07V70.53a9.26,9.26,0,0,0,2.15.24c1.27,0,2.27-.31,2.27-1.51s-.92-1.51-2.54-1.51h-.76V66.38h.74c1.49,0,2.38-.43,2.38-1.46s-.69-1.3-1.9-1.3a7.52,7.52,0,0,0-1.93.29V62.45a8.4,8.4,0,0,1,2.13-.28c2.15,0,3.45.7,3.45,2.64A2.09,2.09,0,0,1,197,67v.09a2.15,2.15,0,0,1,1.89,2.31c0,1.94-1.34,2.89-4,2.89A11.31,11.31,0,0,1,192.66,72.07Z"/></g></g></svg>