<svg id="svg" version="1.1" xmlns="http://www.w3.org/2000/svg" xmlns:xlink="http://www.w3.org/1999/xlink" width="400" height="400" viewBox="0, 0, 400,400"><g id="svgg"><path id="path0" d="M0.000 200.000 L 0.000 400.000 200.000 400.000 L 400.000 400.000 400.000 200.000 L 400.000 0.000 200.000 0.000 L 0.000 0.000 0.000 200.000 M135.429 160.524 C 138.821 163.442,136.360 168.400,131.520 168.400 C 128.088 168.400,127.888 169.960,131.167 171.156 C 132.483 171.636,134.393 172.774,135.467 173.718 C 136.530 174.652,138.157 175.927,139.083 176.551 C 141.013 177.852,141.822 179.693,141.415 181.861 C 141.114 183.466,139.680 186.400,139.197 186.400 C 139.020 186.400,138.098 187.050,137.147 187.845 C 136.196 188.639,135.054 189.454,134.609 189.655 C 134.164 189.856,133.206 190.454,132.480 190.984 C 129.162 193.405,118.476 192.455,117.004 189.607 C 114.838 185.419,115.961 184.117,122.165 183.621 C 128.303 183.129,129.288 182.363,126.100 180.558 C 125.055 179.966,123.770 179.193,123.244 178.841 C 122.718 178.488,121.998 178.027,121.644 177.816 C 116.331 174.649,115.600 173.607,115.600 169.201 C 115.600 166.518,116.395 164.000,117.243 164.000 C 117.392 164.000,118.442 163.165,119.576 162.146 C 122.087 159.888,122.842 159.693,129.278 159.641 C 134.036 159.603,134.423 159.658,135.429 160.524 M151.039 160.837 C 153.213 162.879,153.768 185.685,151.742 189.688 C 149.675 193.773,143.830 191.957,142.779 186.904 C 142.207 184.155,142.595 164.596,143.264 162.469 C 144.148 159.656,148.753 158.689,151.039 160.837 M178.444 160.144 C 180.330 161.018,180.781 165.400,179.152 167.029 C 178.287 167.895,177.703 168.040,174.186 168.260 C 170.027 168.520,169.200 168.813,169.200 170.025 C 169.200 171.011,169.465 171.127,172.811 171.602 C 178.610 172.424,179.825 173.417,178.043 175.877 C 176.109 178.547,174.999 179.200,172.395 179.200 C 169.962 179.200,169.437 179.515,169.006 181.232 C 168.588 182.900,169.475 183.257,174.305 183.363 C 179.105 183.469,179.343 183.543,180.207 185.214 C 180.926 186.603,180.506 189.132,179.284 190.768 L 178.514 191.800 170.097 191.908 L 161.680 192.016 160.476 191.002 C 158.276 189.151,157.999 187.449,158.008 175.829 C 158.020 159.066,157.734 159.459,169.800 159.692 C 174.200 159.777,178.090 159.980,178.444 160.144 M195.740 160.941 C 197.851 163.189,199.887 166.842,200.788 170.000 C 201.258 171.650,201.716 173.220,201.805 173.488 C 202.255 174.852,206.285 169.412,206.989 166.492 C 208.289 161.100,210.099 159.602,215.318 159.601 C 218.973 159.600,220.011 160.289,220.822 163.254 C 221.462 165.599,221.475 186.556,220.836 188.490 C 218.769 194.754,211.754 192.282,211.320 185.135 C 210.980 179.554,209.987 178.582,209.010 182.875 C 208.001 187.311,203.677 192.407,201.407 191.837 C 198.847 191.195,196.288 187.838,195.032 183.473 C 194.180 180.515,193.529 180.691,192.969 184.031 C 192.057 189.463,191.318 190.564,188.284 191.012 C 184.078 191.634,183.684 190.330,183.570 175.386 C 183.458 160.764,183.497 160.619,187.693 160.007 C 192.675 159.281,194.364 159.477,195.740 160.941 M247.569 160.636 C 248.660 161.554,248.800 161.913,248.800 163.805 C 248.800 167.646,245.645 169.387,240.033 168.642 C 238.533 168.443,237.992 168.528,237.578 169.027 C 236.476 170.355,237.586 170.979,241.553 171.261 C 247.097 171.656,248.630 172.982,247.085 176.046 C 246.032 178.133,245.130 178.616,240.985 179.316 C 238.090 179.805,237.822 179.933,237.471 180.988 C 236.878 182.767,237.836 183.200,242.376 183.201 C 249.027 183.204,251.534 186.928,247.560 190.901 L 246.380 192.082 238.144 191.941 L 229.908 191.800 228.602 190.289 C 226.851 188.262,226.800 187.860,226.800 175.970 C 226.800 159.027,226.223 159.782,239.269 159.664 C 246.333 159.600,246.340 159.601,247.569 160.636 M263.600 161.178 C 266.680 164.678,268.068 166.703,268.842 168.827 C 270.093 172.257,270.791 171.810,271.384 167.200 C 272.060 161.936,272.818 160.864,276.097 160.526 C 278.517 160.276,279.621 160.975,280.211 163.132 C 280.666 164.794,280.792 186.007,280.357 187.694 C 278.814 193.683,270.127 193.102,266.994 186.800 C 266.611 186.030,265.725 184.920,265.025 184.333 C 264.324 183.747,263.420 182.532,263.015 181.633 C 261.797 178.933,261.645 179.205,260.832 185.539 C 260.247 190.096,258.585 192.251,256.553 191.086 C 253.004 189.050,251.523 186.741,252.138 184.200 C 252.476 182.803,252.557 179.728,252.408 174.000 C 252.290 169.490,252.318 165.170,252.471 164.400 C 253.289 160.287,260.882 158.089,263.600 161.178 M303.563 160.701 C 306.296 163.435,303.982 168.400,299.975 168.400 C 298.320 168.400,297.428 168.611,296.744 169.165 L 295.800 169.929 298.800 171.310 C 305.904 174.579,309.657 180.394,307.016 184.041 C 306.475 184.788,305.661 186.075,305.208 186.900 C 304.457 188.267,303.495 189.074,299.859 191.390 C 296.848 193.307,285.971 192.170,284.845 189.820 C 282.742 185.432,284.025 183.619,289.269 183.567 C 295.991 183.499,297.472 182.363,293.473 180.344 C 284.954 176.042,282.769 173.230,283.545 167.561 C 283.875 165.148,283.955 165.018,286.604 162.641 C 289.962 159.628,289.760 159.688,296.731 159.640 L 302.462 159.600 303.563 160.701 M339.713 171.567 C 340.243 171.769,340.973 172.556,341.334 173.318 C 341.696 174.079,342.415 174.980,342.934 175.320 C 345.224 176.820,345.091 179.971,342.689 181.122 C 342.082 181.413,341.301 182.084,340.954 182.615 C 339.727 184.487,337.866 184.359,335.608 182.246 C 334.522 181.231,333.451 180.400,333.227 180.400 C 332.432 180.400,331.577 178.112,331.979 177.055 C 333.484 173.098,337.061 170.559,339.713 171.567 M352.223 182.848 C 355.401 183.648,357.600 187.421,357.600 192.073 C 357.600 193.962,358.045 194.533,358.680 193.458 C 359.663 191.794,362.460 191.574,364.555 192.995 C 365.362 193.543,366.565 194.272,367.228 194.615 C 370.021 196.059,370.773 205.092,368.356 208.165 C 367.216 209.614,362.917 210.564,360.124 209.984 C 357.045 209.345,356.800 209.524,356.800 212.414 C 356.800 220.026,346.481 224.237,343.455 217.860 C 342.505 215.858,342.535 209.610,343.500 208.438 C 344.230 207.551,348.482 206.426,351.200 206.401 C 353.367 206.381,353.571 206.090,352.996 203.844 C 352.489 201.863,352.779 199.619,353.687 198.505 C 354.202 197.872,353.770 197.735,350.273 197.419 C 344.111 196.861,342.658 195.138,342.632 188.351 C 342.610 182.602,345.245 181.090,352.223 182.848 M328.248 186.408 C 330.963 191.484,326.944 195.349,322.298 192.129 C 319.494 190.186,319.494 189.437,322.298 186.124 C 324.926 183.020,326.476 183.094,328.248 186.408 M342.009 198.363 C 345.032 201.296,344.938 202.388,341.358 205.900 C 338.795 208.414,337.961 208.515,335.556 206.604 C 334.590 205.836,333.585 205.206,333.323 205.204 C 330.727 205.183,331.169 201.480,334.100 198.693 C 337.850 195.127,338.641 195.094,342.009 198.363 M315.818 199.782 C 318.282 202.246,315.810 206.156,312.778 204.589 C 310.147 203.228,309.956 201.436,312.251 199.631 C 313.638 198.540,314.618 198.582,315.818 199.782 M187.164 200.181 C 189.495 201.387,190.379 207.678,188.437 209.250 C 187.563 209.958,187.540 210.070,188.130 210.723 C 188.482 211.111,189.055 212.112,189.403 212.945 L 190.036 214.462 190.885 213.382 C 192.472 211.365,201.393 210.019,210.227 210.465 L 213.296 210.620 215.753 213.213 L 218.209 215.806 220.316 215.049 C 221.620 214.580,222.735 213.853,223.243 213.140 C 224.769 210.996,226.087 210.592,231.281 210.673 C 238.537 210.786,240.088 211.707,241.743 216.882 C 242.035 217.795,246.050 215.167,247.921 212.838 C 249.696 210.630,251.338 210.235,257.400 210.560 C 262.871 210.854,263.711 211.223,265.000 213.906 C 265.980 215.946,266.185 215.974,267.031 214.192 C 268.500 211.095,278.233 209.441,283.810 211.342 C 286.383 212.218,287.905 212.172,290.898 211.125 C 296.134 209.295,303.368 210.017,304.651 212.498 C 305.631 214.394,304.672 219.352,302.959 221.246 C 302.400 221.863,302.464 221.959,303.708 222.370 C 308.812 224.054,310.601 232.786,306.688 236.917 C 305.760 237.897,304.589 239.158,304.087 239.719 C 301.760 242.321,290.559 242.220,287.913 239.575 C 285.811 237.472,286.581 231.320,289.064 230.376 L 290.090 229.986 289.100 229.208 C 288.011 228.351,286.625 225.440,286.188 223.090 C 285.770 220.842,284.682 220.240,282.784 221.208 C 281.127 222.053,281.109 222.108,279.774 230.400 C 279.436 232.501,278.724 235.085,278.181 236.179 C 277.642 237.267,277.200 238.388,277.200 238.669 C 277.200 240.517,271.494 240.966,269.239 239.296 C 267.025 237.656,266.402 236.168,266.372 232.441 C 266.337 228.130,266.016 227.101,265.248 228.836 C 264.847 229.742,264.822 230.182,265.152 230.512 C 265.835 231.195,265.718 237.012,264.993 238.413 C 263.010 242.248,249.109 242.780,247.147 239.096 C 246.884 238.603,245.793 237.341,244.723 236.290 C 243.593 235.182,242.676 233.878,242.536 233.182 C 242.116 231.081,241.721 231.540,241.481 234.408 C 241.029 239.800,239.898 240.781,233.511 241.322 C 227.951 241.792,224.785 241.276,223.327 239.659 C 218.575 234.394,217.832 233.989,217.438 236.455 C 216.765 240.663,213.527 242.350,209.418 240.633 C 207.038 239.639,206.712 238.675,206.322 231.492 C 205.936 224.393,205.988 224.623,204.867 224.979 C 203.745 225.335,203.566 226.014,203.225 231.205 C 202.746 238.481,201.268 240.803,197.120 240.798 C 194.584 240.794,192.408 240.070,191.147 238.809 L 190.031 237.693 189.385 238.680 C 187.045 242.250,178.400 240.436,178.400 236.375 C 178.400 235.923,178.220 235.664,178.000 235.800 C 177.780 235.936,177.600 236.462,177.600 236.970 C 177.600 241.234,169.037 242.871,167.249 238.948 C 166.971 238.337,166.511 235.270,166.227 232.133 C 165.278 221.631,162.832 221.495,162.052 231.899 C 161.653 237.222,161.210 238.743,159.645 240.159 C 157.945 241.697,152.529 241.329,150.755 239.555 L 149.952 238.752 149.158 239.762 C 147.093 242.387,137.004 242.327,134.836 239.676 L 133.872 238.497 131.775 239.648 C 123.867 243.988,114.577 240.408,114.354 232.935 C 114.323 231.885,114.148 232.423,113.801 234.638 C 112.909 240.337,112.569 240.585,105.000 241.053 C 92.716 241.814,91.075 241.497,86.832 237.544 C 85.817 236.598,85.735 236.609,85.457 237.715 C 84.490 241.568,69.534 242.796,66.757 239.250 C 66.304 238.672,65.370 237.930,64.681 237.600 C 63.504 237.037,62.798 236.076,62.181 234.200 C 61.964 233.541,61.831 233.681,61.426 235.000 C 58.692 243.899,47.905 242.522,47.028 233.162 C 46.536 227.912,45.050 227.631,44.699 232.721 C 44.128 240.995,35.378 244.744,32.163 238.094 C 30.386 234.417,30.442 208.999,32.236 205.531 C 33.433 203.216,37.795 202.311,41.901 203.528 C 44.396 204.267,44.799 205.143,44.412 208.983 C 43.759 215.445,46.589 216.132,47.607 209.758 C 48.288 205.491,50.922 203.200,55.148 203.200 C 60.161 203.200,60.509 203.672,61.830 212.270 C 62.178 214.536,65.071 214.788,67.721 212.782 C 73.196 208.638,82.078 209.549,85.183 214.572 L 86.010 215.910 88.125 215.255 C 89.312 214.888,91.021 213.921,92.020 213.053 C 95.011 210.454,95.558 210.337,104.078 210.476 L 111.667 210.600 112.817 211.888 C 114.207 213.444,114.180 213.482,114.805 209.016 C 115.546 203.717,116.908 202.668,122.400 203.166 C 123.792 203.293,124.995 204.538,125.566 206.445 C 125.940 207.693,126.358 208.190,127.398 208.625 C 128.139 208.935,128.858 209.371,128.996 209.594 C 129.341 210.152,130.400 210.107,130.400 209.535 C 130.400 208.312,132.919 205.262,134.756 204.263 C 138.788 202.068,142.297 203.313,144.284 207.642 C 145.110 209.442,145.780 210.241,147.274 211.209 C 149.453 212.621,149.781 213.418,149.512 216.658 C 149.357 218.522,149.140 219.027,148.164 219.793 C 145.022 222.257,145.201 221.910,144.935 226.041 L 144.687 229.882 147.044 231.427 C 148.340 232.277,149.521 233.146,149.668 233.358 C 149.816 233.571,150.041 233.082,150.168 232.272 C 150.296 231.463,150.496 230.180,150.614 229.422 C 150.732 228.664,150.647 226.549,150.425 224.722 C 149.969 220.960,150.479 209.161,151.205 206.679 C 152.721 201.492,159.829 200.901,161.477 205.824 C 162.482 208.827,164.295 210.283,167.445 210.615 C 170.845 210.974,171.762 211.308,173.477 212.814 C 174.220 213.466,175.067 214.000,175.360 214.000 C 175.653 214.000,176.356 214.365,176.924 214.812 L 177.956 215.623 178.361 214.155 C 178.918 212.140,180.263 210.831,182.077 210.541 C 183.902 210.249,184.104 209.600,182.369 209.600 C 177.244 209.600,178.159 201.283,183.420 200.051 C 185.667 199.524,185.909 199.533,187.164 200.181 M327.772 209.845 C 332.185 215.624,327.312 220.478,321.617 215.976 C 318.837 213.778,318.880 212.871,321.900 210.127 C 324.906 207.396,325.867 207.349,327.772 209.845 M339.238 220.000 C 340.485 220.000,344.400 224.799,344.400 226.328 C 344.400 228.739,340.787 232.400,338.409 232.400 C 335.553 232.400,331.531 227.923,332.155 225.439 C 332.657 223.437,337.127 219.333,338.311 219.787 C 338.616 219.904,339.033 220.000,339.238 220.000 M99.325 221.914 C 97.998 222.758,97.262 229.289,98.412 230.016 C 100.368 231.253,102.000 229.561,102.000 226.298 C 102.000 222.907,100.816 220.966,99.325 221.914 M129.293 226.007 C 128.459 228.682,128.749 230.400,130.035 230.400 C 131.080 230.400,131.420 228.698,130.783 226.664 C 130.044 224.307,129.850 224.222,129.293 226.007 M85.000 226.072 C 84.560 226.303,83.452 227.283,82.538 228.251 L 80.877 230.011 82.855 230.862 C 83.944 231.330,85.072 232.054,85.364 232.470 C 85.833 233.140,85.923 232.915,86.151 230.513 C 86.486 226.963,86.105 225.493,85.000 226.072 " stroke="none" fill="#fbfbfa" fill-rule="evenodd"></path><path id="path1" d="M125.371 161.906 C 125.135 162.068,124.825 162.515,124.683 162.900 C 124.511 163.366,123.987 163.606,123.113 163.617 C 121.343 163.639,119.133 165.658,118.212 168.095 L 117.495 169.989 119.048 172.253 C 120.279 174.048,121.096 174.754,123.000 175.670 C 127.757 177.959,132.000 180.872,132.000 181.850 C 132.000 183.270,130.765 184.747,129.021 185.413 C 126.353 186.432,127.993 188.811,130.775 187.960 C 131.339 187.788,132.558 187.451,133.485 187.212 C 135.031 186.813,135.271 186.565,136.392 184.216 L 137.614 181.655 136.629 179.428 C 136.087 178.202,135.490 177.200,135.302 177.200 C 135.114 177.200,133.979 176.332,132.780 175.271 C 131.379 174.031,129.814 173.089,128.400 172.636 C 124.332 171.332,124.039 170.662,125.046 164.967 C 125.278 163.655,126.193 163.273,130.800 162.565 C 132.233 162.345,132.437 162.224,131.800 161.972 C 130.778 161.569,125.937 161.519,125.371 161.906 M291.645 162.300 C 291.141 162.685,290.249 163.380,289.664 163.844 C 289.079 164.308,288.015 164.987,287.300 165.354 C 286.585 165.721,285.992 166.151,285.983 166.310 C 285.973 166.470,285.810 167.406,285.620 168.391 C 285.085 171.165,287.127 174.111,290.625 175.611 C 291.646 176.048,292.958 176.773,293.541 177.221 C 294.123 177.669,295.725 178.762,297.100 179.651 C 300.437 181.807,300.296 183.024,296.400 185.693 L 295.400 186.378 296.353 187.196 C 297.428 188.119,300.621 187.994,302.268 186.966 C 304.960 185.284,304.780 178.294,302.000 176.540 C 301.230 176.054,300.030 175.190,299.334 174.618 C 298.637 174.047,297.030 173.223,295.762 172.787 C 291.965 171.481,291.415 170.407,292.388 166.211 C 292.815 164.369,293.471 163.784,295.521 163.416 C 298.951 162.802,300.252 162.319,299.400 161.977 C 297.797 161.334,292.630 161.549,291.645 162.300 M215.192 162.395 C 210.629 162.953,209.230 164.664,208.807 170.200 C 208.495 174.285,208.520 174.400,209.735 174.400 C 212.394 174.400,213.600 176.890,213.600 182.377 L 213.600 186.379 214.797 186.999 C 219.220 189.286,219.283 189.113,219.122 175.075 C 219.030 167.007,218.860 163.933,218.465 163.167 C 217.894 162.058,217.912 162.062,215.192 162.395 M161.291 163.949 C 160.205 166.271,160.121 185.329,161.189 187.085 L 161.938 188.317 166.269 188.146 C 168.651 188.052,171.500 187.795,172.600 187.575 C 173.700 187.355,175.410 187.226,176.400 187.288 C 178.002 187.388,178.214 187.301,178.328 186.500 C 178.452 185.627,178.353 185.600,175.048 185.600 C 168.878 185.600,166.000 184.389,166.000 181.792 C 166.000 180.053,167.370 176.677,168.608 175.365 L 169.858 174.038 168.710 173.563 C 166.550 172.668,165.781 169.625,167.044 166.964 C 167.786 165.401,167.532 163.759,166.499 163.432 C 166.115 163.311,164.938 163.051,163.885 162.855 L 161.970 162.498 161.291 163.949 M190.898 162.777 C 188.829 163.114,186.954 164.781,186.400 166.777 C 185.904 168.560,185.880 172.981,186.361 173.905 C 187.073 175.276,187.610 177.865,187.976 181.696 C 188.384 185.968,188.563 186.504,189.517 186.321 C 190.058 186.216,190.166 185.491,190.201 181.717 C 190.248 176.605,190.708 175.600,193.000 175.600 C 194.978 175.600,195.846 176.969,197.392 182.531 C 198.067 184.959,201.077 188.634,202.117 188.300 C 204.298 187.600,207.280 181.402,207.355 177.412 C 207.415 174.232,206.698 174.088,204.182 176.778 C 201.358 179.797,200.644 179.334,199.126 173.503 C 198.653 171.686,197.957 169.840,197.578 169.400 C 197.200 168.960,196.251 167.205,195.471 165.500 C 193.951 162.178,194.085 162.258,190.898 162.777 M257.714 162.882 C 256.154 164.834,256.076 165.527,256.247 175.998 C 256.404 185.565,256.463 186.241,257.220 186.996 C 258.431 188.203,258.671 187.426,258.881 181.629 C 259.226 172.063,262.344 169.621,264.536 177.200 C 264.886 178.410,265.895 180.359,266.779 181.531 C 267.663 182.702,268.570 184.346,268.796 185.184 C 269.557 188.011,273.185 189.136,276.319 187.517 L 278.200 186.545 278.054 176.172 C 277.973 170.468,277.864 165.751,277.811 165.691 C 277.486 165.322,276.424 166.331,275.292 168.086 L 273.984 170.114 274.892 170.747 C 279.036 173.640,277.911 176.000,272.386 176.000 C 269.253 176.000,267.703 174.485,266.999 170.737 C 266.851 169.948,266.245 168.771,265.652 168.121 C 265.059 167.472,263.976 166.009,263.245 164.870 C 262.084 163.060,261.750 162.800,260.591 162.800 C 259.862 162.800,259.010 162.702,258.697 162.582 C 258.384 162.462,257.942 162.597,257.714 162.882 M145.502 163.873 C 144.795 165.469,144.572 185.284,145.243 186.903 C 145.749 188.125,146.777 188.197,149.408 187.197 C 150.668 186.718,150.932 183.957,150.711 173.545 C 150.523 164.663,150.449 164.267,148.871 163.663 C 146.281 162.673,146.026 162.689,145.502 163.873 M229.408 164.119 C 228.689 165.839,228.544 185.400,229.238 186.925 C 229.705 187.948,234.108 188.875,235.224 188.185 C 235.470 188.033,237.924 187.774,240.677 187.611 C 244.170 187.403,245.784 187.150,246.015 186.775 C 246.629 185.782,245.972 185.600,241.783 185.600 C 236.458 185.600,234.959 184.646,235.057 181.322 C 235.186 176.957,237.120 174.400,240.293 174.400 C 241.627 174.400,242.353 174.248,242.200 174.000 C 242.064 173.780,240.923 173.600,239.665 173.600 C 235.434 173.600,233.692 171.256,235.371 167.824 C 237.300 163.881,236.725 162.800,232.700 162.800 C 229.978 162.800,229.955 162.809,229.408 164.119 " stroke="none" fill="#3a9791" fill-rule="evenodd"></path><path id="path2" d="M336.653 175.991 C 334.752 178.864,337.264 181.487,339.567 179.035 L 340.474 178.069 339.399 176.235 C 338.091 174.002,337.976 173.992,336.653 175.991 M348.012 185.312 C 344.752 186.961,344.469 190.270,347.400 192.485 C 349.871 194.352,349.784 194.354,352.207 192.360 C 354.708 190.302,354.768 189.993,353.134 187.602 C 351.311 184.935,349.955 184.329,348.012 185.312 M324.531 189.048 C 323.877 190.048,323.880 190.123,324.599 190.648 C 326.171 191.798,327.653 190.713,326.867 188.988 C 326.285 187.709,325.394 187.732,324.531 189.048 M359.711 196.121 C 355.137 197.417,354.690 205.375,359.097 207.058 C 365.115 209.357,369.086 205.365,367.244 198.870 C 366.515 196.302,363.263 195.115,359.711 196.121 M336.409 200.591 C 334.264 202.803,337.015 205.493,339.241 203.361 C 340.653 202.008,340.655 201.964,339.364 200.431 C 338.075 198.898,338.048 198.899,336.409 200.591 M184.154 203.927 C 180.605 205.379,180.501 206.515,183.855 207.211 C 186.995 207.863,188.360 206.243,186.500 204.071 C 185.823 203.280,185.747 203.275,184.154 203.927 M53.192 206.890 C 52.247 208.421,52.110 208.975,51.869 212.229 C 51.593 215.950,50.451 217.835,48.039 218.551 C 43.403 219.928,40.418 217.227,40.391 211.629 C 40.382 209.812,39.279 206.743,38.450 206.231 C 36.091 204.773,33.965 212.604,34.386 221.200 C 34.424 221.970,34.582 225.526,34.738 229.103 L 35.022 235.607 36.275 236.860 C 38.404 238.989,40.373 236.605,40.391 231.877 C 40.415 225.677,42.426 223.652,47.765 224.456 C 50.738 224.904,51.147 225.539,51.740 230.626 C 52.535 237.451,53.390 238.521,56.323 236.364 C 58.586 234.700,58.591 234.669,58.596 221.126 L 58.600 209.253 57.400 207.991 C 55.153 205.627,54.135 205.361,53.192 206.890 M119.869 206.418 C 117.494 208.286,117.424 208.712,117.411 221.400 C 117.399 234.308,117.323 233.893,120.263 237.052 C 122.926 239.914,128.409 239.804,128.395 236.890 C 128.385 234.979,127.928 233.983,126.790 233.395 C 124.353 232.135,124.003 230.420,123.969 219.574 C 123.928 206.610,123.081 203.891,119.869 206.418 M136.403 207.260 C 135.741 208.173,135.198 209.118,135.196 209.360 C 135.193 209.602,134.475 210.700,133.600 211.800 C 132.225 213.528,132.008 214.072,132.006 215.800 C 132.004 217.743,132.191 218.189,134.197 221.028 C 134.883 221.998,135.008 222.912,135.099 227.578 C 135.290 237.490,136.674 239.335,143.379 238.617 L 146.000 238.336 146.000 236.645 C 146.000 234.662,145.589 234.050,143.317 232.649 C 141.031 231.240,140.800 230.648,140.800 226.206 C 140.800 221.526,141.243 220.516,143.864 219.221 C 146.250 218.042,146.386 217.845,146.394 215.573 L 146.400 213.746 144.160 213.040 C 141.967 212.349,141.894 212.277,140.719 209.667 C 138.676 205.131,138.155 204.841,136.403 207.260 M156.324 205.864 C 153.993 206.503,153.084 212.189,153.304 224.748 C 153.495 235.623,153.649 236.382,155.847 237.218 C 159.107 238.457,159.979 236.571,159.991 228.254 C 160.003 220.188,160.714 218.821,164.906 218.805 C 167.448 218.796,167.851 219.946,168.095 227.916 C 168.395 237.728,169.600 239.875,173.139 236.900 C 176.384 234.172,176.171 221.318,172.806 216.808 C 171.923 215.624,171.200 214.514,171.200 214.342 C 171.200 213.539,169.104 213.066,165.408 213.034 L 161.409 213.000 159.938 209.400 C 158.454 205.769,158.063 205.387,156.324 205.864 M347.527 210.605 C 344.155 213.233,344.166 214.468,347.583 216.788 L 349.866 218.339 352.178 216.204 C 354.727 213.851,354.722 214.039,352.295 211.100 C 350.418 208.828,349.881 208.772,347.527 210.605 M324.744 212.775 C 323.731 213.607,323.927 214.488,325.321 215.368 C 326.572 216.157,327.861 214.370,326.995 213.048 C 326.173 211.794,325.969 211.770,324.744 212.775 M295.155 212.766 C 293.372 213.016,292.107 213.799,289.174 216.469 C 285.939 219.415,288.293 225.076,293.885 227.800 C 298.443 230.020,298.455 230.039,296.464 232.030 L 294.801 233.693 292.200 233.415 C 289.302 233.104,288.850 233.428,289.564 235.305 C 291.363 240.037,298.327 240.601,302.937 236.388 C 307.552 232.170,306.219 225.645,300.365 223.799 C 295.037 222.120,294.488 215.577,299.759 216.566 C 300.539 216.712,301.339 217.119,301.536 217.471 C 301.802 217.946,301.965 217.629,302.175 216.230 C 302.544 213.769,300.543 212.145,297.523 212.453 C 297.235 212.483,296.170 212.623,295.155 212.766 M72.400 213.573 C 71.630 213.997,70.640 214.519,70.200 214.733 C 60.373 219.505,62.346 236.790,72.947 238.790 C 78.055 239.754,81.986 238.168,82.644 234.880 C 82.965 233.274,82.221 232.923,79.711 233.497 C 78.115 233.863,77.648 233.794,75.724 232.914 C 71.991 231.205,71.997 228.803,75.736 228.182 C 84.137 226.786,86.505 216.937,79.326 213.249 C 77.898 212.515,73.987 212.698,72.400 213.573 M98.000 213.064 C 97.670 213.194,96.950 213.699,96.400 214.186 C 95.850 214.674,94.810 215.305,94.088 215.590 C 85.727 218.886,87.349 237.294,96.116 238.608 C 98.100 238.906,101.062 238.547,101.422 237.965 C 101.546 237.764,102.727 237.600,104.046 237.600 C 110.808 237.600,111.092 237.151,111.270 226.184 C 111.414 217.328,111.069 215.907,108.272 213.835 C 107.138 212.995,99.614 212.431,98.000 213.064 M204.600 213.269 C 204.160 213.513,203.434 214.155,202.987 214.695 L 202.175 215.676 200.787 214.879 C 197.862 213.199,195.552 214.103,194.140 217.481 C 193.295 219.505,193.384 232.823,194.255 234.660 C 195.052 236.340,197.885 238.004,198.469 237.136 C 199.726 235.267,199.924 234.229,200.200 228.075 C 200.532 220.686,200.788 220.048,204.009 218.596 C 207.316 217.105,208.346 219.391,208.378 228.286 C 208.408 236.582,209.559 238.660,213.329 237.227 C 215.178 236.524,216.339 228.864,215.629 222.044 L 215.197 217.887 212.699 215.349 L 210.200 212.810 207.800 212.817 C 206.480 212.821,205.040 213.024,204.600 213.269 M228.441 213.421 C 219.186 217.438,216.745 229.023,223.704 235.896 C 227.607 239.750,232.752 240.293,236.644 237.261 C 240.200 234.490,239.858 232.552,235.894 233.012 C 231.686 233.501,228.290 231.836,228.991 229.628 C 229.237 228.854,230.063 228.502,233.527 227.696 C 241.925 225.741,241.784 214.571,233.344 213.189 C 230.351 212.698,230.076 212.711,228.441 213.421 M252.400 213.090 C 251.214 213.539,245.706 218.449,245.239 219.473 C 243.526 223.234,244.344 234.800,246.323 234.800 C 246.524 234.800,247.509 235.524,248.514 236.408 C 251.619 239.141,255.726 240.023,258.913 238.642 C 263.795 236.525,264.565 231.540,259.743 233.274 C 257.465 234.093,254.840 233.347,253.453 231.486 C 252.266 229.893,252.878 229.202,256.587 227.946 C 264.621 225.225,266.670 218.104,260.580 214.070 C 258.682 212.813,254.467 212.308,252.400 213.090 M279.600 213.600 C 279.050 213.776,277.399 213.938,275.931 213.960 C 270.798 214.037,269.798 216.162,270.105 226.337 C 270.305 232.955,270.753 234.861,272.490 236.484 C 274.407 238.275,276.000 236.241,276.000 232.004 C 276.000 223.192,277.190 220.057,281.015 218.795 C 282.154 218.419,282.393 218.096,282.806 216.376 C 283.543 213.302,282.730 212.598,279.600 213.600 M182.154 213.896 C 180.865 214.775,180.433 232.330,181.624 235.462 C 181.944 236.305,184.005 237.192,185.657 237.198 C 187.636 237.204,188.578 220.769,186.882 215.800 C 186.191 213.774,183.765 212.797,182.154 213.896 M75.531 217.636 C 76.482 217.967,76.880 218.424,77.189 219.536 C 77.876 222.011,77.673 222.476,75.505 223.382 C 72.444 224.661,71.141 221.882,73.207 218.484 C 74.106 217.006,73.919 217.074,75.531 217.636 M103.233 219.349 C 104.442 222.013,104.338 230.186,103.071 232.041 C 101.450 234.415,97.573 233.836,96.237 231.021 C 94.070 226.455,95.844 219.674,99.600 218.164 C 102.154 217.136,102.241 217.165,103.233 219.349 M231.468 219.616 C 232.763 222.834,231.289 224.494,228.443 223.022 C 226.923 222.236,226.921 222.409,228.494 219.549 C 230.023 216.766,230.323 216.773,231.468 219.616 M254.689 217.700 C 255.864 219.219,256.163 222.100,255.225 222.861 C 254.080 223.787,253.941 223.783,252.667 222.781 L 251.626 221.963 252.439 219.902 C 253.616 216.914,253.881 216.655,254.689 217.700 M336.306 224.772 L 335.000 225.944 336.378 227.372 C 338.027 229.080,338.013 229.078,339.345 227.745 C 341.802 225.289,338.897 222.447,336.306 224.772 " stroke="none" fill="#c58658" fill-rule="evenodd"></path><path id="path3" d="M301.200 159.888 C 301.750 159.986,302.808 160.636,303.550 161.333 C 304.596 162.315,304.798 162.402,304.447 161.721 C 303.812 160.489,302.404 159.590,301.211 159.654 L 300.200 159.709 301.200 159.888 M252.563 174.800 C 252.563 178.430,252.623 179.915,252.698 178.100 C 252.772 176.285,252.772 173.315,252.698 171.500 C 252.623 169.685,252.563 171.170,252.563 174.800 M336.338 171.718 C 332.944 173.259,330.385 180.400,333.227 180.400 C 333.451 180.400,334.522 181.231,335.608 182.246 C 337.866 184.359,339.727 184.487,340.954 182.615 C 341.301 182.084,342.082 181.413,342.689 181.122 C 345.091 179.971,345.224 176.820,342.934 175.320 C 342.415 174.980,341.696 174.079,341.334 173.318 C 340.391 171.331,338.515 170.730,336.338 171.718 M176.277 172.958 L 177.554 174.032 176.777 175.316 C 175.252 177.836,174.518 178.507,172.958 178.808 L 171.400 179.108 173.046 179.154 C 176.382 179.247,180.500 174.282,178.100 173.061 C 175.658 171.819,174.871 171.774,176.277 172.958 M339.399 176.235 L 340.474 178.069 339.567 179.035 C 337.264 181.487,334.752 178.864,336.653 175.991 C 337.976 173.992,338.091 174.002,339.399 176.235 M344.586 182.781 C 342.916 183.457,342.617 184.312,342.632 188.351 C 342.658 195.138,344.111 196.861,350.273 197.419 C 353.770 197.735,354.202 197.872,353.687 198.505 C 352.779 199.619,352.489 201.863,352.996 203.844 C 353.571 206.090,353.367 206.381,351.200 206.401 C 348.482 206.426,344.230 207.551,343.500 208.438 C 342.535 209.610,342.505 215.858,343.455 217.860 C 346.481 224.237,356.800 220.026,356.800 212.414 C 356.800 209.524,357.045 209.345,360.124 209.984 C 362.917 210.564,367.216 209.614,368.356 208.165 C 370.773 205.092,370.021 196.059,367.228 194.615 C 366.565 194.272,365.362 193.543,364.555 192.995 C 362.460 191.574,359.663 191.794,358.680 193.458 C 358.045 194.533,357.600 193.962,357.600 192.073 C 357.600 184.771,351.109 180.137,344.586 182.781 M324.928 183.896 C 324.043 184.051,320.765 187.595,320.272 188.929 C 319.204 191.821,325.860 194.576,328.218 192.218 C 330.554 189.883,327.976 183.363,324.928 183.896 M350.881 185.225 C 352.000 185.743,354.519 189.328,354.334 190.137 C 354.182 190.800,350.429 194.001,349.807 193.998 C 348.680 193.992,345.395 190.927,345.281 189.774 C 344.996 186.895,348.442 184.096,350.881 185.225 M326.867 188.988 C 327.653 190.713,326.171 191.798,324.599 190.648 C 323.880 190.123,323.877 190.048,324.531 189.048 C 325.394 187.732,326.285 187.709,326.867 188.988 M198.880 190.137 C 200.560 191.769,202.216 192.364,202.929 191.592 C 203.294 191.197,203.283 191.149,202.877 191.379 C 202.057 191.844,200.548 191.299,198.907 189.943 L 197.400 188.698 198.880 190.137 M255.355 190.327 C 255.967 191.317,258.037 191.735,258.726 191.008 C 259.361 190.338,259.356 190.320,258.635 190.701 C 258.089 190.989,257.477 190.941,256.499 190.532 C 255.744 190.217,255.230 190.125,255.355 190.327 M178.580 191.169 C 178.371 191.372,177.660 191.615,177.000 191.709 L 175.800 191.880 177.051 191.940 C 177.741 191.973,178.526 191.731,178.800 191.400 C 179.345 190.743,179.188 190.578,178.580 191.169 M213.941 191.301 C 214.143 191.503,214.733 191.601,215.254 191.519 C 216.055 191.393,215.998 191.337,214.887 191.152 C 214.093 191.021,213.719 191.079,213.941 191.301 M337.400 196.006 C 335.621 196.695,331.600 201.020,331.600 202.246 C 331.600 203.535,332.568 205.198,333.323 205.204 C 333.585 205.206,334.590 205.836,335.556 206.604 C 337.961 208.515,338.795 208.414,341.358 205.900 C 344.938 202.388,345.032 201.296,342.009 198.363 C 339.994 196.407,338.430 195.607,337.400 196.006 M365.299 196.532 C 367.561 197.477,368.448 201.625,367.082 204.873 C 365.323 209.060,357.866 208.629,356.606 204.268 C 354.751 197.843,359.123 193.952,365.299 196.532 M312.251 199.631 C 309.956 201.436,310.147 203.228,312.778 204.589 C 315.810 206.156,318.282 202.246,315.818 199.782 C 314.618 198.582,313.638 198.540,312.251 199.631 M339.364 200.431 C 340.655 201.964,340.653 202.008,339.241 203.361 C 337.015 205.493,334.264 202.803,336.409 200.591 C 338.048 198.899,338.075 198.898,339.364 200.431 M183.420 200.051 C 178.159 201.283,177.244 209.600,182.369 209.600 C 184.104 209.600,183.902 210.249,182.077 210.541 C 180.263 210.831,178.918 212.140,178.361 214.155 L 177.956 215.623 176.924 214.812 C 176.356 214.365,175.653 214.000,175.360 214.000 C 175.067 214.000,174.220 213.466,173.477 212.814 C 171.762 211.308,170.845 210.974,167.445 210.615 C 164.295 210.283,162.482 208.827,161.477 205.824 C 159.829 200.901,152.721 201.492,151.205 206.679 C 150.479 209.161,149.969 220.960,150.425 224.722 C 150.647 226.549,150.732 228.664,150.614 229.422 C 150.496 230.180,150.296 231.463,150.168 232.272 C 150.041 233.082,149.816 233.571,149.668 233.358 C 149.521 233.146,148.340 232.277,147.044 231.427 L 144.687 229.882 144.935 226.041 C 145.201 221.910,145.022 222.257,148.164 219.793 C 149.140 219.027,149.357 218.522,149.512 216.658 C 149.781 213.418,149.453 212.621,147.274 211.209 C 145.780 210.241,145.110 209.442,144.284 207.642 C 142.297 203.313,138.788 202.068,134.756 204.263 C 132.919 205.262,130.400 208.312,130.400 209.535 C 130.400 210.107,129.341 210.152,128.996 209.594 C 128.858 209.371,128.139 208.935,127.398 208.625 C 126.358 208.190,125.940 207.693,125.566 206.445 C 124.995 204.538,123.792 203.293,122.400 203.166 C 116.908 202.668,115.546 203.717,114.805 209.016 C 114.180 213.482,114.207 213.444,112.817 211.888 L 111.667 210.600 104.078 210.476 C 95.558 210.337,95.011 210.454,92.020 213.053 C 91.021 213.921,89.312 214.888,88.125 215.255 L 86.010 215.910 85.183 214.572 C 82.078 209.549,73.196 208.638,67.721 212.782 C 65.071 214.788,62.178 214.536,61.830 212.270 C 60.509 203.672,60.161 203.200,55.148 203.200 C 50.922 203.200,48.288 205.491,47.607 209.758 C 46.589 216.132,43.759 215.445,44.412 208.983 C 44.799 205.143,44.396 204.267,41.901 203.528 C 37.795 202.311,33.433 203.216,32.236 205.531 C 30.442 208.999,30.386 234.417,32.163 238.094 C 35.378 244.744,44.128 240.995,44.699 232.721 C 45.050 227.631,46.536 227.912,47.028 233.162 C 47.905 242.522,58.692 243.899,61.426 235.000 C 61.831 233.681,61.964 233.541,62.181 234.200 C 62.798 236.076,63.504 237.037,64.681 237.600 C 65.370 237.930,66.304 238.672,66.757 239.250 C 69.534 242.796,84.490 241.568,85.457 237.715 C 85.735 236.609,85.817 236.598,86.832 237.544 C 91.075 241.497,92.716 241.814,105.000 241.053 C 112.569 240.585,112.909 240.337,113.801 234.638 C 114.148 232.423,114.323 231.885,114.354 232.935 C 114.577 240.408,123.867 243.988,131.775 239.648 L 133.872 238.497 134.836 239.676 C 137.004 242.327,147.093 242.387,149.158 239.762 L 149.952 238.752 150.755 239.555 C 152.529 241.329,157.945 241.697,159.645 240.159 C 161.210 238.743,161.653 237.222,162.052 231.899 C 162.832 221.495,165.278 221.631,166.227 232.133 C 166.511 235.270,166.971 238.337,167.249 238.948 C 169.037 242.871,177.600 241.234,177.600 236.970 C 177.600 236.462,177.780 235.936,178.000 235.800 C 178.220 235.664,178.400 235.923,178.400 236.375 C 178.400 240.436,187.045 242.250,189.385 238.680 L 190.031 237.693 191.147 238.809 C 192.408 240.070,194.584 240.794,197.120 240.798 C 201.268 240.803,202.746 238.481,203.225 231.205 C 203.566 226.014,203.745 225.335,204.867 224.979 C 205.988 224.623,205.936 224.393,206.322 231.492 C 206.712 238.675,207.038 239.639,209.418 240.633 C 213.527 242.350,216.765 240.663,217.438 236.455 C 217.832 233.989,218.575 234.394,223.327 239.659 C 224.785 241.276,227.951 241.792,233.511 241.322 C 239.898 240.781,241.029 239.800,241.481 234.408 C 241.721 231.540,242.116 231.081,242.536 233.182 C 242.676 233.878,243.593 235.182,244.723 236.290 C 245.793 237.341,246.884 238.603,247.147 239.096 C 249.109 242.780,263.010 242.248,264.993 238.413 C 265.718 237.012,265.835 231.195,265.152 230.512 C 264.822 230.182,264.847 229.742,265.248 228.836 C 266.016 227.101,266.337 228.130,266.372 232.441 C 266.402 236.168,267.025 237.656,269.239 239.296 C 271.494 240.966,277.200 240.517,277.200 238.669 C 277.200 238.388,277.642 237.267,278.181 236.179 C 278.724 235.085,279.436 232.501,279.774 230.400 C 281.109 222.108,281.127 222.053,282.784 221.208 C 284.682 220.240,285.770 220.842,286.188 223.090 C 286.625 225.440,288.011 228.351,289.100 229.208 L 290.090 229.986 289.064 230.376 C 286.581 231.320,285.811 237.472,287.913 239.575 C 290.559 242.220,301.760 242.321,304.087 239.719 C 304.589 239.158,305.760 237.897,306.688 236.917 C 310.601 232.786,308.812 224.054,303.708 222.370 C 302.464 221.959,302.400 221.863,302.959 221.246 C 304.672 219.352,305.631 214.394,304.651 212.498 C 303.368 210.017,296.134 209.295,290.898 211.125 C 287.905 212.172,286.383 212.218,283.810 211.342 C 278.233 209.441,268.500 211.095,267.031 214.192 C 266.185 215.974,265.980 215.946,265.000 213.906 C 262.899 209.534,251.166 208.801,247.921 212.838 C 246.050 215.167,242.035 217.795,241.743 216.882 C 240.088 211.707,238.537 210.786,231.281 210.673 C 226.087 210.592,224.769 210.996,223.243 213.140 C 222.735 213.853,221.620 214.580,220.316 215.049 L 218.209 215.806 215.753 213.213 L 213.296 210.620 210.227 210.465 C 201.393 210.019,192.472 211.365,190.885 213.382 L 190.036 214.462 189.403 212.945 C 189.055 212.112,188.482 211.111,188.130 210.723 C 187.540 210.070,187.563 209.958,188.437 209.250 C 190.379 207.678,189.495 201.387,187.164 200.181 C 185.909 199.533,185.667 199.524,183.420 200.051 M187.200 205.795 C 187.200 207.353,186.324 207.724,183.855 207.211 C 180.501 206.515,180.605 205.379,184.154 203.927 C 186.020 203.164,187.200 203.888,187.200 205.795 M57.400 207.991 L 58.600 209.253 58.596 221.126 C 58.591 234.669,58.586 234.700,56.323 236.364 C 53.390 238.521,52.535 237.451,51.740 230.626 C 51.147 225.539,50.738 224.904,47.765 224.456 C 42.426 223.652,40.415 225.677,40.391 231.877 C 40.373 236.605,38.404 238.989,36.275 236.860 L 35.022 235.607 34.738 229.103 C 34.582 225.526,34.424 221.970,34.386 221.200 C 33.965 212.604,36.091 204.773,38.450 206.231 C 39.279 206.743,40.382 209.812,40.391 211.629 C 40.438 221.272,51.157 221.833,51.869 212.229 C 52.357 205.632,53.977 204.391,57.400 207.991 M123.236 207.800 C 123.827 209.485,123.943 211.340,123.969 219.574 C 124.003 230.420,124.353 232.135,126.790 233.395 C 128.820 234.445,129.046 237.646,127.158 238.622 C 124.184 240.160,120.316 238.280,118.063 234.200 C 117.056 232.377,117.090 210.417,118.103 208.535 C 119.928 205.145,122.192 204.821,123.236 207.800 M138.897 206.300 C 139.239 206.685,140.058 208.200,140.719 209.667 C 141.894 212.277,141.967 212.349,144.160 213.040 L 146.400 213.746 146.394 215.573 C 146.386 217.845,146.250 218.042,143.864 219.221 C 141.243 220.516,140.800 221.526,140.800 226.206 C 140.800 230.648,141.031 231.240,143.317 232.649 C 145.589 234.050,146.000 234.662,146.000 236.645 L 146.000 238.336 143.379 238.617 C 136.674 239.335,135.290 237.490,135.099 227.578 C 135.008 222.912,134.883 221.998,134.197 221.028 C 132.191 218.189,132.004 217.743,132.006 215.800 C 132.008 214.072,132.225 213.528,133.600 211.800 C 134.475 210.700,135.193 209.602,135.196 209.360 C 135.201 208.771,137.516 205.600,137.941 205.600 C 138.125 205.600,138.555 205.915,138.897 206.300 M159.938 209.400 L 161.409 213.000 165.408 213.034 C 169.104 213.066,171.200 213.539,171.200 214.342 C 171.200 214.514,171.923 215.624,172.806 216.808 C 176.171 221.318,176.384 234.172,173.139 236.900 C 169.600 239.875,168.395 237.728,168.095 227.916 C 167.851 219.946,167.448 218.796,164.906 218.805 C 160.714 218.821,160.003 220.188,159.991 228.254 C 159.979 236.571,159.107 238.457,155.847 237.218 C 152.656 236.004,151.904 213.869,154.845 207.725 C 156.465 204.342,158.089 204.876,159.938 209.400 M321.900 210.127 C 318.880 212.871,318.837 213.778,321.617 215.976 C 327.312 220.478,332.185 215.624,327.772 209.845 C 325.867 207.349,324.906 207.396,321.900 210.127 M352.295 211.100 C 354.722 214.039,354.727 213.851,352.178 216.204 L 349.866 218.339 347.583 216.788 C 344.166 214.468,344.155 213.233,347.527 210.605 C 349.881 208.772,350.418 208.828,352.295 211.100 M326.995 213.048 C 327.861 214.370,326.572 216.157,325.321 215.368 C 323.927 214.488,323.731 213.607,324.744 212.775 C 325.969 211.770,326.173 211.794,326.995 213.048 M299.811 212.844 C 302.166 213.437,302.518 213.942,302.175 216.230 C 301.965 217.629,301.802 217.946,301.536 217.471 C 300.063 214.839,296.226 216.501,296.511 219.646 C 296.762 222.419,297.083 222.765,300.365 223.799 C 304.466 225.092,305.958 227.597,305.380 232.221 C 304.477 239.452,292.061 241.873,289.564 235.305 C 288.850 233.428,289.302 233.104,292.200 233.415 L 294.801 233.693 296.464 232.030 C 298.455 230.039,298.443 230.020,293.885 227.800 C 284.295 223.129,286.560 213.574,297.523 212.453 C 297.810 212.424,298.840 212.600,299.811 212.844 M79.326 213.249 C 86.505 216.937,84.137 226.786,75.736 228.182 C 71.997 228.803,71.991 231.205,75.724 232.914 C 77.648 233.794,78.115 233.863,79.711 233.497 C 82.221 232.923,82.965 233.274,82.644 234.880 C 81.986 238.168,78.055 239.754,72.947 238.790 C 62.346 236.790,60.373 219.505,70.200 214.733 C 70.640 214.519,71.630 213.997,72.400 213.573 C 73.987 212.698,77.898 212.515,79.326 213.249 M108.272 213.835 C 111.069 215.907,111.414 217.328,111.270 226.184 C 111.092 237.151,110.808 237.600,104.046 237.600 C 102.727 237.600,101.546 237.764,101.422 237.965 C 101.062 238.547,98.100 238.906,96.116 238.608 C 87.349 237.294,85.727 218.886,94.088 215.590 C 94.810 215.305,95.850 214.674,96.400 214.186 C 97.867 212.885,98.197 212.821,102.872 212.914 C 106.494 212.987,107.316 213.127,108.272 213.835 M212.699 215.349 L 215.197 217.887 215.629 222.044 C 216.339 228.864,215.178 236.524,213.329 237.227 C 209.559 238.660,208.408 236.582,208.378 228.286 C 208.346 219.391,207.316 217.105,204.009 218.596 C 200.788 220.048,200.532 220.686,200.200 228.075 C 199.924 234.229,199.726 235.267,198.469 237.136 C 197.885 238.004,195.052 236.340,194.255 234.660 C 193.384 232.823,193.295 219.505,194.140 217.481 C 195.552 214.103,197.862 213.199,200.787 214.879 L 202.175 215.676 202.987 214.695 C 204.227 213.198,205.182 212.825,207.800 212.817 L 210.200 212.810 212.699 215.349 M233.344 213.189 C 241.784 214.571,241.925 225.741,233.527 227.696 C 230.063 228.502,229.237 228.854,228.991 229.628 C 228.290 231.836,231.686 233.501,235.894 233.012 C 239.858 232.552,240.200 234.490,236.644 237.261 C 234.484 238.944,231.367 239.507,228.154 238.794 C 219.313 236.834,216.801 221.851,224.348 216.096 C 228.624 212.835,229.485 212.557,233.344 213.189 M260.580 214.070 C 266.670 218.104,264.621 225.225,256.587 227.946 C 252.878 229.202,252.266 229.893,253.453 231.486 C 254.840 233.347,257.465 234.093,259.743 233.274 C 264.565 231.540,263.795 236.525,258.913 238.642 C 255.726 240.023,251.619 239.141,248.514 236.408 C 247.509 235.524,246.524 234.800,246.323 234.800 C 244.344 234.800,243.526 223.234,245.239 219.473 C 245.706 218.449,251.214 213.539,252.400 213.090 C 254.467 212.308,258.682 212.813,260.580 214.070 M283.054 213.795 C 283.626 215.288,282.380 218.345,281.015 218.795 C 277.190 220.057,276.000 223.192,276.000 232.004 C 276.000 236.241,274.407 238.275,272.490 236.484 C 270.753 234.861,270.305 232.955,270.105 226.337 C 269.798 216.162,270.798 214.037,275.931 213.960 C 277.399 213.938,279.050 213.776,279.600 213.600 C 281.261 213.068,282.808 213.155,283.054 213.795 M186.882 215.800 C 188.578 220.769,187.636 237.204,185.657 237.198 C 184.005 237.192,181.944 236.305,181.624 235.462 C 180.433 232.330,180.865 214.775,182.154 213.896 C 183.765 212.797,186.191 213.774,186.882 215.800 M73.207 218.484 C 71.141 221.882,72.444 224.661,75.505 223.382 C 77.673 222.476,77.876 222.011,77.189 219.536 C 76.880 218.424,76.482 217.967,75.531 217.636 C 73.919 217.074,74.106 217.006,73.207 218.484 M99.600 218.164 C 95.844 219.674,94.070 226.455,96.237 231.021 C 97.573 233.836,101.450 234.415,103.071 232.041 C 104.845 229.445,104.160 218.729,102.142 217.489 C 101.954 217.373,100.810 217.677,99.600 218.164 M228.494 219.549 C 226.921 222.409,226.923 222.236,228.443 223.022 C 231.289 224.494,232.763 222.834,231.468 219.616 C 230.323 216.773,230.023 216.766,228.494 219.549 M253.449 217.521 C 253.340 217.697,252.885 218.769,252.439 219.902 L 251.626 221.963 252.667 222.781 C 255.416 224.944,257.073 220.781,254.689 217.700 C 254.246 217.128,253.737 217.054,253.449 217.521 M336.164 220.728 C 331.270 224.272,330.910 226.923,334.825 230.585 C 337.710 233.284,339.285 233.192,342.226 230.155 C 345.342 226.939,345.305 225.642,342.005 222.373 C 340.688 221.068,339.442 220.000,339.238 220.000 C 339.033 220.000,338.616 219.904,338.311 219.787 C 338.005 219.670,337.039 220.093,336.164 220.728 M100.640 221.906 C 103.011 223.489,102.231 230.417,99.684 230.394 C 98.169 230.380,97.822 229.735,97.901 227.079 C 98.021 223.033,99.146 220.908,100.640 221.906 M339.418 224.582 C 340.668 225.831,340.654 226.437,339.345 227.745 C 338.013 229.078,338.027 229.080,336.378 227.372 L 335.000 225.944 336.306 224.772 C 337.893 223.348,338.168 223.331,339.418 224.582 M130.783 226.664 C 131.420 228.698,131.080 230.400,130.035 230.400 C 128.749 230.400,128.459 228.682,129.293 226.007 C 129.850 224.222,130.044 224.307,130.783 226.664 M86.151 230.513 C 85.923 232.915,85.833 233.140,85.364 232.470 C 85.072 232.054,83.944 231.330,82.855 230.862 L 80.877 230.011 82.538 228.251 C 85.835 224.760,86.647 225.268,86.151 230.513 " stroke="none" fill="#f6d1af" fill-rule="evenodd"></path><path id="path4" d="M122.919 159.971 C 122.215 160.147,120.711 161.126,119.576 162.146 C 118.442 163.165,117.392 164.000,117.243 164.000 C 116.395 164.000,115.600 166.518,115.600 169.201 C 115.600 173.607,116.331 174.649,121.644 177.816 C 121.998 178.027,122.718 178.488,123.244 178.841 C 123.770 179.193,125.065 179.972,126.123 180.571 C 129.075 182.244,127.571 183.528,122.600 183.580 C 116.570 183.642,114.275 186.661,117.581 190.180 C 119.901 192.649,129.489 193.167,132.480 190.984 C 133.206 190.454,134.160 189.857,134.600 189.658 C 141.051 186.732,143.512 179.536,139.083 176.551 C 138.157 175.927,136.530 174.652,135.467 173.718 C 134.393 172.774,132.483 171.636,131.167 171.156 C 127.919 169.972,128.083 168.400,131.454 168.400 C 136.330 168.400,138.604 164.433,135.634 161.106 L 134.468 159.800 129.334 159.726 C 126.510 159.685,123.624 159.795,122.919 159.971 M144.941 160.345 C 143.084 161.515,142.873 162.750,142.573 174.200 C 142.182 189.096,142.885 191.600,147.462 191.600 C 152.463 191.600,152.877 190.358,152.821 175.522 C 152.781 164.788,152.464 162.175,151.039 160.837 C 149.691 159.570,146.572 159.318,144.941 160.345 M160.759 160.515 C 158.297 162.172,158.213 162.623,158.077 174.926 C 157.938 187.444,158.184 189.074,160.506 191.028 L 161.756 192.080 169.778 191.930 C 178.409 191.768,179.208 191.586,179.963 189.611 C 181.706 185.055,180.385 183.614,174.256 183.387 C 169.462 183.210,168.599 182.855,169.006 181.232 C 169.410 179.622,169.936 179.236,172.118 178.947 C 174.281 178.660,175.275 177.894,176.763 175.373 L 177.554 174.032 176.346 173.016 C 175.084 171.954,174.633 171.804,171.477 171.394 C 169.441 171.129,168.757 170.394,169.479 169.246 C 169.787 168.755,170.881 168.528,174.032 168.301 C 179.231 167.926,180.172 167.257,180.122 163.971 C 180.065 160.182,178.660 159.663,168.359 159.624 C 162.499 159.601,162.035 159.656,160.759 160.515 M187.693 159.987 C 183.492 160.640,183.458 160.768,183.570 175.386 C 183.684 190.330,184.078 191.634,188.284 191.012 C 191.318 190.564,192.057 189.463,192.969 184.031 C 193.529 180.691,194.180 180.515,195.031 183.473 C 197.150 190.843,201.298 193.220,205.314 189.367 C 207.890 186.895,208.245 186.273,209.008 182.900 C 209.369 181.305,209.801 180.000,209.968 180.000 C 210.575 180.000,211.200 182.086,211.202 184.119 C 211.207 188.874,212.636 190.972,216.170 191.414 C 220.820 191.995,221.290 190.587,221.295 176.056 C 221.300 160.780,220.854 159.599,215.069 159.601 C 210.125 159.602,208.268 161.185,206.989 166.492 C 206.285 169.412,202.255 174.852,201.805 173.488 C 201.716 173.220,201.258 171.650,200.788 170.000 C 199.954 167.078,198.073 163.611,195.953 161.090 C 194.778 159.693,191.986 159.320,187.693 159.987 M230.701 159.983 C 227.178 160.667,226.800 162.214,226.800 175.970 C 226.800 187.860,226.851 188.262,228.602 190.289 L 229.908 191.800 238.144 191.941 L 246.380 192.082 247.560 190.901 C 251.534 186.928,249.027 183.204,242.376 183.201 C 237.836 183.200,236.878 182.767,237.471 180.988 C 237.817 179.948,238.104 179.802,240.646 179.374 C 249.533 177.877,250.237 171.878,241.599 171.264 C 237.584 170.979,236.472 170.360,237.578 169.027 C 237.992 168.528,238.533 168.443,240.033 168.642 C 245.645 169.387,248.800 167.646,248.800 163.805 C 248.800 159.971,247.926 159.590,239.269 159.646 C 235.381 159.671,231.526 159.823,230.701 159.983 M256.900 160.082 C 253.551 161.200,251.822 164.050,252.460 167.400 C 253.009 170.282,252.850 181.635,252.227 184.013 C 251.590 186.446,251.899 187.350,253.936 189.000 C 258.155 192.418,260.317 191.068,260.985 184.600 C 261.512 179.489,261.835 179.017,263.015 181.633 C 263.420 182.532,264.325 183.747,265.026 184.333 C 265.728 184.920,266.666 186.120,267.112 187.000 C 269.817 192.340,277.464 193.596,279.879 189.096 C 280.490 187.957,280.576 186.470,280.587 176.800 C 280.605 161.197,280.300 160.092,276.097 160.526 C 272.818 160.864,272.060 161.936,271.384 167.200 C 270.791 171.810,270.093 172.257,268.842 168.827 C 268.068 166.703,266.680 164.678,263.600 161.178 C 262.442 159.862,259.164 159.326,256.900 160.082 M290.204 159.873 C 289.347 160.113,285.367 163.596,284.429 164.927 C 282.781 167.266,283.184 173.103,285.116 174.876 C 286.432 176.084,291.177 179.190,293.473 180.346 C 297.472 182.360,295.989 183.499,289.282 183.567 C 284.284 183.617,282.516 186.076,284.915 189.641 C 286.234 191.601,288.097 192.125,293.820 192.148 C 298.986 192.168,298.594 192.283,302.654 189.556 C 304.121 188.570,307.100 184.235,307.766 182.117 C 308.733 179.039,304.467 173.892,298.800 171.301 L 295.800 169.929 296.744 169.165 C 297.431 168.608,298.320 168.400,300.009 168.400 C 304.191 168.400,306.148 163.825,303.182 160.983 C 301.969 159.821,293.096 159.062,290.204 159.873 M131.800 161.972 C 132.437 162.224,132.233 162.345,130.800 162.565 C 126.193 163.273,125.278 163.655,125.046 164.967 C 124.039 170.662,124.332 171.332,128.400 172.636 C 129.814 173.089,131.379 174.031,132.780 175.271 C 133.979 176.332,135.114 177.200,135.302 177.200 C 135.490 177.200,136.087 178.202,136.629 179.428 L 137.614 181.655 136.392 184.216 C 135.271 186.565,135.031 186.813,133.485 187.212 C 132.558 187.451,131.339 187.788,130.775 187.960 C 127.993 188.811,126.353 186.432,129.021 185.413 C 130.765 184.747,132.000 183.270,132.000 181.850 C 132.000 180.872,127.757 177.959,123.000 175.670 C 121.096 174.754,120.279 174.048,119.048 172.253 L 117.495 169.989 118.212 168.095 C 119.133 165.658,121.343 163.639,123.113 163.617 C 123.987 163.606,124.511 163.366,124.683 162.900 C 125.157 161.616,129.475 161.053,131.800 161.972 M299.400 161.977 C 300.252 162.319,298.951 162.802,295.521 163.416 C 293.471 163.784,292.815 164.369,292.388 166.211 C 291.415 170.407,291.965 171.481,295.762 172.787 C 297.030 173.223,298.637 174.047,299.334 174.618 C 300.030 175.190,301.230 176.054,302.000 176.540 C 304.780 178.294,304.960 185.284,302.268 186.966 C 300.621 187.994,297.428 188.119,296.353 187.196 L 295.400 186.378 296.400 185.693 C 300.296 183.024,300.437 181.807,297.100 179.651 C 295.725 178.762,294.123 177.669,293.541 177.221 C 292.958 176.773,291.646 176.048,290.625 175.611 C 287.127 174.111,285.085 171.165,285.620 168.391 C 285.810 167.406,285.973 166.470,285.983 166.310 C 285.992 166.151,286.585 165.721,287.300 165.354 C 288.015 164.987,289.079 164.308,289.664 163.844 C 292.516 161.583,292.472 161.599,295.581 161.628 C 297.242 161.644,298.960 161.801,299.400 161.977 M218.465 163.167 C 218.860 163.933,219.030 167.007,219.122 175.075 C 219.283 189.113,219.220 189.286,214.797 186.999 L 213.600 186.379 213.600 182.377 C 213.600 176.890,212.394 174.400,209.735 174.400 C 208.520 174.400,208.495 174.285,208.807 170.200 C 209.230 164.664,210.629 162.953,215.192 162.395 C 217.912 162.062,217.894 162.058,218.465 163.167 M166.499 163.432 C 167.532 163.759,167.786 165.401,167.044 166.964 C 165.781 169.625,166.550 172.668,168.710 173.563 L 169.858 174.038 168.608 175.365 C 167.370 176.677,166.000 180.053,166.000 181.792 C 166.000 184.389,168.878 185.600,175.048 185.600 C 178.353 185.600,178.452 185.627,178.328 186.500 C 178.214 187.301,178.002 187.388,176.400 187.288 C 175.410 187.226,173.700 187.355,172.600 187.575 C 171.500 187.795,168.651 188.052,166.269 188.146 L 161.938 188.317 161.189 187.085 C 160.121 185.329,160.205 166.271,161.291 163.949 L 161.970 162.498 163.885 162.855 C 164.938 163.051,166.115 163.311,166.499 163.432 M195.471 165.500 C 196.251 167.205,197.200 168.960,197.578 169.400 C 197.957 169.840,198.653 171.686,199.126 173.503 C 200.644 179.334,201.358 179.797,204.182 176.778 C 206.698 174.088,207.415 174.232,207.355 177.412 C 207.280 181.402,204.298 187.600,202.117 188.300 C 201.077 188.634,198.067 184.959,197.392 182.531 C 195.846 176.969,194.978 175.600,193.000 175.600 C 190.708 175.600,190.248 176.605,190.201 181.717 C 190.166 185.491,190.058 186.216,189.517 186.321 C 188.563 186.504,188.384 185.968,187.976 181.696 C 187.610 177.865,187.073 175.276,186.361 173.905 C 185.880 172.981,185.904 168.560,186.400 166.777 C 186.954 164.781,188.829 163.114,190.898 162.777 C 194.085 162.258,193.951 162.178,195.471 165.500 M260.591 162.800 C 261.750 162.800,262.084 163.060,263.245 164.870 C 263.976 166.009,265.059 167.472,265.652 168.121 C 266.245 168.771,266.851 169.948,266.999 170.737 C 267.703 174.485,269.253 176.000,272.386 176.000 C 277.911 176.000,279.036 173.640,274.892 170.747 L 273.984 170.114 275.292 168.086 C 276.424 166.331,277.486 165.322,277.811 165.691 C 277.864 165.751,277.973 170.468,278.054 176.172 L 278.200 186.545 276.319 187.517 C 273.185 189.136,269.557 188.011,268.796 185.184 C 268.570 184.346,267.663 182.702,266.779 181.531 C 265.895 180.359,264.886 178.410,264.536 177.200 C 262.344 169.621,259.226 172.063,258.881 181.629 C 258.671 187.426,258.431 188.203,257.220 186.996 C 256.113 185.891,255.657 166.639,256.690 164.602 C 257.599 162.810,258.066 162.340,258.697 162.582 C 259.010 162.702,259.862 162.800,260.591 162.800 M148.871 163.663 C 150.449 164.267,150.523 164.663,150.711 173.545 C 150.990 186.706,150.891 187.096,147.105 187.807 C 144.886 188.223,144.742 187.417,144.882 175.370 C 145.035 162.210,145.039 162.198,148.871 163.663 M235.920 163.280 C 236.671 164.031,236.489 165.537,235.371 167.824 C 233.692 171.256,235.434 173.600,239.665 173.600 C 240.923 173.600,242.064 173.780,242.200 174.000 C 242.353 174.248,241.627 174.400,240.293 174.400 C 237.120 174.400,235.186 176.957,235.057 181.322 C 234.959 184.646,236.458 185.600,241.783 185.600 C 245.972 185.600,246.629 185.782,246.015 186.775 C 245.784 187.150,244.170 187.403,240.677 187.611 C 237.924 187.774,235.470 188.033,235.224 188.185 C 234.108 188.875,229.705 187.948,229.238 186.925 C 228.544 185.400,228.689 165.839,229.408 164.119 C 230.006 162.688,234.721 162.081,235.920 163.280 " stroke="none" fill="#6cc4c4" fill-rule="evenodd"></path></g></svg>