<?xml version="1.0" encoding="UTF-8"?>
<svg version="1.1" xmlns="http://www.w3.org/2000/svg" width="200" height="200">
<path d="M0 0 C66 0 132 0 200 0 C200 66 200 132 200 200 C134 200 68 200 0 200 C0 134 0 68 0 0 Z " fill="#12294B" transform="translate(0,0)"/>
<path d="M0 0 C25.74 0 51.48 0 78 0 C78 10.23 78 20.46 78 31 C72.39 31 66.78 31 61 31 C61 48.16 61 65.32 61 83 C66.61 83 72.22 83 78 83 C78 93.23 78 103.46 78 114 C52.26 114 26.52 114 0 114 C0 103.77 0 93.54 0 83 C5.61 83 11.22 83 17 83 C17 65.84 17 48.68 17 31 C11.39 31 5.78 31 0 31 C0 20.77 0 10.54 0 0 Z " fill="#F05837" transform="translate(61,43)"/>
<path d="M0 0 C25.74 0 51.48 0 78 0 C78 10.23 78 20.46 78 31 C72.39 31 66.78 31 61 31 C61 48.16 61 65.32 61 83 C66.61 83 72.22 83 78 83 C78 93.23 78 103.46 78 114 C52.26 114 26.52 114 0 114 C0 103.77 0 93.54 0 83 C5.61 83 11.22 83 17 83 C17 65.84 17 48.68 17 31 C11.39 31 5.78 31 0 31 C0 20.77 0 10.54 0 0 Z M4 4 C4 11.26 4 18.52 4 26 C8.89118777 26.28915269 8.89118777 26.28915269 13.78295898 26.56811523 C18.88888889 26.88888889 18.88888889 26.88888889 20 28 C20.09899561 29.80509373 20.12799151 31.61406928 20.12939453 33.421875 C20.13254669 34.57977539 20.13569885 35.73767578 20.13894653 36.93066406 C20.1369223 38.19104492 20.13489807 39.45142578 20.1328125 40.75 C20.13424759 42.67537598 20.13424759 42.67537598 20.13571167 44.63964844 C20.13718831 47.36003824 20.13503519 50.08039525 20.13037109 52.80078125 C20.12467381 56.29484669 20.12795299 59.78883533 20.13394356 63.28289795 C20.13841754 66.60527153 20.13528885 69.92762423 20.1328125 73.25 C20.13483673 74.51038086 20.13686096 75.77076172 20.13894653 77.06933594 C20.13579437 78.22723633 20.13264221 79.38513672 20.12939453 80.578125 C20.12859894 81.60325195 20.12780334 82.62837891 20.12698364 83.68457031 C20 86 20 86 19 87 C16.47206606 87.23671983 13.97065034 87.4214325 11.4375 87.5625 C7.7559375 87.7790625 7.7559375 87.7790625 4 88 C4 95.26 4 102.52 4 110 C27.1 110 50.2 110 74 110 C74 102.74 74 95.48 74 88 C69.10881223 87.71084731 69.10881223 87.71084731 64.21704102 87.43188477 C59.11111111 87.11111111 59.11111111 87.11111111 58 86 C57.90100439 84.19490627 57.87200849 82.38593072 57.87060547 80.578125 C57.86745331 79.42022461 57.86430115 78.26232422 57.86105347 77.06933594 C57.8630777 75.80895508 57.86510193 74.54857422 57.8671875 73.25 C57.86623077 71.96641602 57.86527405 70.68283203 57.86428833 69.36035156 C57.86281169 66.63996176 57.86496481 63.91960475 57.86962891 61.19921875 C57.87532619 57.70515331 57.87204701 54.21116467 57.86605644 50.71710205 C57.86158246 47.39472847 57.86471115 44.07237577 57.8671875 40.75 C57.86516327 39.48961914 57.86313904 38.22923828 57.86105347 36.93066406 C57.86578171 35.19381348 57.86578171 35.19381348 57.87060547 33.421875 C57.87140106 32.39674805 57.87219666 31.37162109 57.87301636 30.31542969 C58 28 58 28 59 27 C61.52793394 26.76328017 64.02934966 26.5785675 66.5625 26.4375 C69.016875 26.293125 71.47125 26.14875 74 26 C74 18.74 74 11.48 74 4 C50.9 4 27.8 4 4 4 Z " fill="#F2F4F7" transform="translate(61,43)"/>
<path d="M0 0 C23.1 0 46.2 0 70 0 C70 7.26 70 14.52 70 22 C62.5625 22.4375 62.5625 22.4375 60.21704102 22.56811523 C56.81838919 22.49795579 56.81838919 22.49795579 54 24 C53.87677242 25.77903357 53.82210981 27.56286203 53.79467773 29.34594727 C53.77473251 30.4870546 53.75478729 31.62816193 53.73423767 32.80384827 C53.70916893 34.66631447 53.70916893 34.66631447 53.68359375 36.56640625 C53.66281265 37.83016586 53.64203156 39.09392548 53.62062073 40.39598083 C53.56616286 43.76118633 53.5159572 47.12640173 53.46777344 50.49169922 C53.41760241 53.92355901 53.36189345 57.35532831 53.30664062 60.78710938 C53.19929809 67.52466761 53.09755675 74.26229336 53 81 C52.67 81 52.34 81 52 81 C51.9537071 73.4723122 51.91814635 65.94463912 51.89637566 58.41684151 C51.88592802 54.92156073 51.87175117 51.42637717 51.84912109 47.93115234 C51.82328047 43.91502944 51.81353534 39.89900903 51.8046875 35.8828125 C51.79436493 34.62445587 51.78404236 33.36609924 51.77340698 32.0696106 C51.77318039 30.32803177 51.77318039 30.32803177 51.77294922 28.55126953 C51.768508 27.52534698 51.76406677 26.49942444 51.75949097 25.44241333 C52 23 52 23 54 21 C58.67619188 20.71965276 63.31216611 20.91476666 68 21 C68 14.73 68 8.46 68 2 C46.22 2 24.44 2 2 2 C2 7.94 2 13.88 2 20 C6.89118777 20.28915269 6.89118777 20.28915269 11.78295898 20.56811523 C16.88888889 20.88888889 16.88888889 20.88888889 18 22 C18.09381302 23.84118029 18.11743954 25.68597641 18.11352539 27.52954102 C18.11344986 28.71068985 18.11337433 29.89183868 18.11329651 31.10877991 C18.10813522 32.3941716 18.10297394 33.67956329 18.09765625 35.00390625 C18.0962413 36.31205795 18.09482635 37.62020966 18.09336853 38.96800232 C18.0895441 42.45162859 18.07971446 45.93521339 18.06866455 49.41882324 C18.05844882 52.97126708 18.05387056 56.52371759 18.04882812 60.07617188 C18.03809212 67.05079832 18.0210166 74.02539717 18 81 C17.67 81 17.34 81 17 81 C16.98969254 80.28812027 16.97938507 79.57624054 16.96876526 78.8427887 C16.87095102 72.14717174 16.76845996 65.45164482 16.66066074 58.75618076 C16.6054012 55.3136426 16.55197653 51.871096 16.50268555 48.4284668 C16.44599199 44.47435474 16.38142505 40.52039056 16.31640625 36.56640625 C16.29969376 35.32476212 16.28298126 34.08311798 16.26576233 32.80384827 C16.24581711 31.66274094 16.22587189 30.52163361 16.20532227 29.34594727 C16.18200584 27.83037987 16.18200584 27.83037987 16.15821838 26.28419495 C16.2535527 24.03470111 16.2535527 24.03470111 15 23 C12.47206606 22.76328017 9.97065034 22.5785675 7.4375 22.4375 C4.983125 22.293125 2.52875 22.14875 0 22 C0 14.74 0 7.48 0 0 Z " fill="#E6826C" transform="translate(65,47)"/>
<path d="M0 0 C25.74 0 51.48 0 78 0 C78 0.33 78 0.66 78 1 C53.25 1.33 28.5 1.66 3 2 C3.33 2.66 3.66 3.32 4 4 C4.08426094 5.6674606 4.10725143 7.33825187 4.09765625 9.0078125 C4.09443359 9.99394531 4.09121094 10.98007812 4.08789062 11.99609375 C4.07951172 13.02863281 4.07113281 14.06117187 4.0625 15.125 C4.05798828 16.16527344 4.05347656 17.20554687 4.04882812 18.27734375 C4.03701952 20.85161962 4.02055075 23.42578146 4 26 C5.05960937 25.97679688 6.11921875 25.95359375 7.2109375 25.9296875 C8.5989513 25.91093056 9.9869727 25.89273028 11.375 25.875 C12.42300781 25.84986328 12.42300781 25.84986328 13.4921875 25.82421875 C15.32897486 25.80655733 17.16601963 25.89696739 19 26 C21.64015811 28.64015811 21.25304253 29.83622509 21.25878906 33.51953125 C21.26509338 34.67412842 21.27139771 35.82872559 21.27789307 37.01831055 C21.2738446 38.27039307 21.26979614 39.52247559 21.265625 40.8125 C21.26753845 42.09229736 21.2694519 43.37209473 21.27142334 44.69067383 C21.27437382 47.40092793 21.27007955 50.11105027 21.26074219 52.82128906 C21.24934753 56.29849231 21.25590743 59.77538682 21.26788712 63.25257874 C21.27684425 66.56424404 21.27057635 69.87582591 21.265625 73.1875 C21.26967346 74.43958252 21.27372192 75.69166504 21.27789307 76.98168945 C21.27158875 78.13628662 21.26528442 79.29088379 21.25878906 80.48046875 C21.25640228 82.01030396 21.25640228 82.01030396 21.25396729 83.57104492 C21 86 21 86 19 88 C16.41935871 88.14497985 13.95056116 88.18677545 11.375 88.125 C10.31539062 88.11146484 10.31539062 88.11146484 9.234375 88.09765625 C7.48943902 88.07407603 5.74467705 88.03820461 4 88 C4.66 87.01 5.32 86.02 6 85 C8.49609375 84.7421875 8.49609375 84.7421875 11.4375 84.875 C14.75381501 85.00747597 16.82469358 85.05843547 20 84 C20 65.85 20 47.7 20 29 C17.03 29 14.06 29 11 29 C12.98 29.33 14.96 29.66 17 30 C17 30.33 17 30.66 17 31 C11.39 31 5.78 31 0 31 C0 20.77 0 10.54 0 0 Z " fill="#ECF0F4" transform="translate(61,43)"/>
<path d="M0 0 C1.06845406 -0.00021904 1.06845406 -0.00021904 2.15849304 -0.0004425 C4.51763941 0.00025528 6.87670724 0.00804142 9.23583984 0.01586914 C10.86965898 0.0177338 12.50347868 0.01915747 14.13729858 0.02015686 C18.44125914 0.0239783 22.74518605 0.03380541 27.0491333 0.04486084 C31.43948918 0.05508297 35.82985049 0.0596562 40.22021484 0.06469727 C48.83741952 0.075428 57.45459037 0.0930218 66.07177734 0.11352539 C66.07177734 9.68352539 66.07177734 19.25352539 66.07177734 29.11352539 C61.45177734 29.11352539 56.83177734 29.11352539 52.07177734 29.11352539 C52.73177734 28.12352539 53.39177734 27.13352539 54.07177734 26.11352539 C57.37177734 26.11352539 60.67177734 26.11352539 64.07177734 26.11352539 C63.74177734 18.85352539 63.41177734 11.59352539 63.07177734 4.11352539 C39.31177734 3.78352539 15.55177734 3.45352539 -8.92822266 3.11352539 C-8.92822266 2.45352539 -8.92822266 1.79352539 -8.92822266 1.11352539 C-5.96414707 -0.3685124 -3.307431 -0.00568287 0 0 Z " fill="#FDFBF9" transform="translate(72.92822265625,43.886474609375)"/>
<path d="M0 0 C2 1 2 1 3.1171875 4.00390625 C4.24538929 8.32352817 4.22387113 12.49970718 4.125 16.9375 C4.11597656 17.71673828 4.10695313 18.49597656 4.09765625 19.29882812 C4.07433691 21.19935447 4.03847586 23.09972008 4 25 C-5.05774486 25.06951087 -14.1153979 25.12281667 -23.17335129 25.15543652 C-27.37933524 25.17109243 -31.5851367 25.19232919 -35.79101562 25.22631836 C-39.84994551 25.2589147 -43.90869987 25.27685357 -47.96775055 25.28463173 C-49.51631687 25.29017477 -51.06487358 25.30099901 -52.61336517 25.31719017 C-54.78249368 25.33896871 -56.95089693 25.34196684 -59.12011719 25.34057617 C-60.35477722 25.34723801 -61.58943726 25.35389984 -62.86151123 25.36076355 C-66 25 -66 25 -70 22 C-46.9 22 -23.8 22 0 22 C0 14.74 0 7.48 0 0 Z " fill="#FDF9F6" transform="translate(135,131)"/>
<path d="M0 0 C6.75 -0.125 6.75 -0.125 9 1 C9 19.15 9 37.3 9 56 C8.01 56 7.02 56 6 56 C6 38.18 6 20.36 6 2 C3.69 2 1.38 2 -1 2 C-0.67 1.34 -0.34 0.68 0 0 Z " fill="#F5F7FA" transform="translate(72,71)"/>
<path d="M0 0 C0.66 0.33 1.32 0.66 2 1 C2 8.26 2 15.52 2 23 C-2.95 23.495 -2.95 23.495 -8 24 C-8.33 24.33 -8.66 24.66 -9 25 C-4.71 25.33 -0.42 25.66 4 26 C4 26.33 4 26.66 4 27 C-1.61 27 -7.22 27 -13 27 C-13 26.34 -13 25.68 -13 25 C-13.66 25.33 -14.32 25.66 -15 26 C-15.33 43.82 -15.66 61.64 -16 80 C-15.34 80 -14.68 80 -14 80 C-14 80.99 -14 81.98 -14 83 C-9.38 83 -4.76 83 0 83 C0 83.33 0 83.66 0 84 C-2.45862401 84.05383848 -4.9160755 84.09359038 -7.375 84.125 C-8.07367188 84.14175781 -8.77234375 84.15851563 -9.4921875 84.17578125 C-11.32897486 84.19344267 -13.16601963 84.10303261 -15 84 C-17.64015811 81.35984189 -17.25304253 80.16377491 -17.25878906 76.48046875 C-17.26509338 75.32587158 -17.27139771 74.17127441 -17.27789307 72.98168945 C-17.2738446 71.72960693 -17.26979614 70.47752441 -17.265625 69.1875 C-17.26753845 67.90770264 -17.2694519 66.62790527 -17.27142334 65.30932617 C-17.27437382 62.59907207 -17.27007955 59.88894973 -17.26074219 57.17871094 C-17.24934753 53.70150769 -17.25590743 50.22461318 -17.26788712 46.74742126 C-17.27684425 43.43575596 -17.27057635 40.12417409 -17.265625 36.8125 C-17.26967346 35.56041748 -17.27372192 34.30833496 -17.27789307 33.01831055 C-17.27158875 31.86371338 -17.26528442 30.70911621 -17.25878906 29.51953125 C-17.25719788 28.49964111 -17.25560669 27.47975098 -17.25396729 26.42895508 C-17 24 -17 24 -15 22 C-12.41048555 21.85452166 -9.95814609 21.81350948 -7.375 21.875 C-3.724375 21.936875 -3.724375 21.936875 0 22 C0 14.74 0 7.48 0 0 Z " fill="#FEE5DA" transform="translate(135,47)"/>
<path d="M0 0 C0.33 0 0.66 0 1 0 C1.06949335 7.51037714 1.12280778 15.02072096 1.15543652 22.53134632 C1.17109635 26.01881576 1.1923398 29.50606532 1.22631836 32.9934082 C1.2651328 37.00213743 1.2797065 41.01063548 1.29296875 45.01953125 C1.30845261 46.27272659 1.32393646 47.52592194 1.33988953 48.8170929 C1.34011612 49.97806992 1.34034271 51.13904694 1.34057617 52.33520508 C1.34723801 53.35890701 1.35389984 54.38260895 1.36076355 55.43733215 C1 58 1 58 -0.31156921 59.83573914 C-4.34112203 62.61432543 -11.46456188 61.12482857 -16 61 C-16 67.27 -16 73.54 -16 80 C-16.66 80 -17.32 80 -18 80 C-18 73.07 -18 66.14 -18 59 C-10.625 58.625 -10.625 58.625 -8.30712891 58.52197266 C-4.20221481 58.37780092 -4.20221481 58.37780092 -1 56 C-0.66840715 53.53379836 -0.66840715 53.53379836 -0.68115234 50.63232422 C-0.66128265 49.51131317 -0.64141296 48.39030212 -0.62094116 47.23532104 C-0.60361435 45.41340744 -0.60361435 45.41340744 -0.5859375 43.5546875 C-0.56657135 42.31453888 -0.5472052 41.07439026 -0.5272522 39.79666138 C-0.4775119 36.49888221 -0.43627523 33.20113861 -0.39910889 29.90319824 C-0.35910998 26.53822666 -0.30799897 23.17342608 -0.2578125 19.80859375 C-0.16160213 13.20583893 -0.07659617 6.60300989 0 0 Z " fill="#DA5F42" transform="translate(83,72)"/>
<path d="M0 0 C2.45862401 -0.05383848 4.9160755 -0.09359038 7.375 -0.125 C8.42300781 -0.15013672 8.42300781 -0.15013672 9.4921875 -0.17578125 C11.32897486 -0.19344267 13.16601963 -0.10303261 15 0 C17.64015811 2.64015811 17.25304253 3.83622509 17.25878906 7.51953125 C17.26509338 8.67412842 17.27139771 9.82872559 17.27789307 11.01831055 C17.2738446 12.27039307 17.26979614 13.52247559 17.265625 14.8125 C17.26753845 16.09229736 17.2694519 17.37209473 17.27142334 18.69067383 C17.27437382 21.40092793 17.27007955 24.11105027 17.26074219 26.82128906 C17.24934753 30.29849231 17.25590743 33.77538682 17.26788712 37.25257874 C17.27684425 40.56424404 17.27057635 43.87582591 17.265625 47.1875 C17.26967346 48.43958252 17.27372192 49.69166504 17.27789307 50.98168945 C17.27158875 52.13628662 17.26528442 53.29088379 17.25878906 54.48046875 C17.25640228 56.01030396 17.25640228 56.01030396 17.25396729 57.57104492 C17 60 17 60 15 62 C12.41935871 62.14497985 9.95056116 62.18677545 7.375 62.125 C6.66859375 62.11597656 5.9621875 62.10695312 5.234375 62.09765625 C3.48943902 62.07407603 1.74467705 62.03820461 0 62 C0.66 61.01 1.32 60.02 2 59 C4.49609375 58.7421875 4.49609375 58.7421875 7.4375 58.875 C10.75381501 59.00747597 12.82469358 59.05843547 16 58 C16 39.85 16 21.7 16 3 C11.05 2.67 6.1 2.34 1 2 C0.67 1.34 0.34 0.68 0 0 Z " fill="#FEE9E0" transform="translate(65,69)"/>
<path d="M0 0 C5.28 0 10.56 0 16 0 C16 0.33 16 0.66 16 1 C11.05 1 6.1 1 1 1 C1.33 16.84 1.66 32.68 2 49 C6.62 49.66 11.24 50.32 16 51 C16 51.33 16 51.66 16 52 C10.72 52 5.44 52 0 52 C0 34.84 0 17.68 0 0 Z " fill="#1A2942" transform="translate(122,74)"/>
<path d="M0 0 C0.33 0 0.66 0 1 0 C1 6.6 1 13.2 1 20 C6.28 20 11.56 20 17 20 C17.33 21.32 17.66 22.64 18 24 C17.01 23.34 16.02 22.68 15 22 C12.40393086 21.69925319 9.91446877 21.49204838 7.3125 21.375 C4.899375 21.25125 2.48625 21.1275 0 21 C0 14.07 0 7.14 0 0 Z " fill="#D16349" transform="translate(65,48)"/>
<path d="M0 0 C2.45862401 -0.05383848 4.9160755 -0.09359038 7.375 -0.125 C8.42300781 -0.15013672 8.42300781 -0.15013672 9.4921875 -0.17578125 C11.32897486 -0.19344267 13.16601963 -0.10303261 15 0 C17 2 17 2 17.1953125 4.1640625 C17.17210938 4.97617188 17.14890625 5.78828125 17.125 6.625 C17.10695313 7.44226563 17.08890625 8.25953125 17.0703125 9.1015625 C17.04710938 9.72804688 17.02390625 10.35453125 17 11 C16.67 11 16.34 11 16 11 C16 8.36 16 5.72 16 3 C14.92878906 2.95101562 13.85757813 2.90203125 12.75390625 2.8515625 C11.35674361 2.77654706 9.9596095 2.7009987 8.5625 2.625 C7.85544922 2.5940625 7.14839844 2.563125 6.41992188 2.53125 C4.60760812 2.42719371 2.80182012 2.22080108 1 2 C0.67 1.34 0.34 0.68 0 0 Z " fill="#FEDBCF" transform="translate(65,69)"/>
<path d="M0 0 C5.61 0 11.22 0 17 0 C17 0.33 17 0.66 17 1 C11.51324804 2.86783046 6.77807024 3.2358396 1 3 C0.67 2.01 0.34 1.02 0 0 Z " fill="#DDE7EB" transform="translate(122,126)"/>
<path d="M0 0 C2.64 0 5.28 0 8 0 C7.67 0.66 7.34 1.32 7 2 C11.29 2.33 15.58 2.66 20 3 C20 3.33 20 3.66 20 4 C14.39 4 8.78 4 3 4 C3 3.34 3 2.68 3 2 C2.01 2.33 1.02 2.66 0 3 C0 2.01 0 1.02 0 0 Z " fill="#E2E2E5" transform="translate(119,70)"/>
</svg>
